<svg xmlns="http://www.w3.org/2000/svg" width="444" height="420" fill="none"><path fill="#ED8936" fill-opacity=".52" d="M409.6 239.82a.88.88 0 0 1-.69-.68l-17.75-95.83c-.08-.44.23-.85.7-.92a.9.9 0 0 1 1.02.67l4.34 20.15v.03l13.41 75.67c.08.45-.24.86-.71.92a.9.9 0 0 1-.31 0Z"/><path fill="#ED8936" fill-opacity=".52" d="M396.2 164.15a.9.9 0 0 1-.6-.41l-54.47-89.75a.78.78 0 0 1 .29-1.09.92.92 0 0 1 1.18.26l50.15 69.6c.06.08.1.19.13.3l4.34 20.15a.8.8 0 0 1-.55.91.96.96 0 0 1-.47.03ZM353.75 91.5l40.7 67.04-3.25-15.05-37.45-51.99ZM153.94 45.38a.87.87 0 0 1-.7-.76c-.05-.44.29-.8.75-.86l87.49-8.62c.2-.02.41.03.58.14l14.32 8.8c.33.2.48.57.38.91a.83.83 0 0 1-.82.58l-101.82-.17-.18-.02Zm87.46-8.58-70.92 6.99 82.53.14-11.61-7.13Z"/><path fill="#ED8936" fill-opacity=".52" d="M341.72 74.4c-.04 0-.07-.02-.1-.03l-85.98-28.85-14.5-8.88a.8.8 0 0 1-.33-1.07c.2-.37.67-.53 1.09-.37l100.29 37.65c.44.16.68.63.52 1.05a.86.86 0 0 1-.99.5Zm-92.43-34.68 7.1 4.35 42.26 14.18-49.36-18.53ZM202.24 384.84a.88.88 0 0 1-.7-.64.79.79 0 0 1 .6-.94l107.77-28.84c.38-.1.78.05 1 .37.2.32.17.72-.1.99l-20.27 20.21a.89.89 0 0 1-.53.24l-87.5 8.63a1 1 0 0 1-.27-.02Zm105.1-28.02-95 25.42 77.12-7.6 17.87-17.82Z"/><path fill="#ED8936" fill-opacity=".52" d="M289.73 376.22a.92.92 0 0 1-.5-.28.78.78 0 0 1 .02-1.09l20.27-20.21a.9.9 0 0 1 .24-.16l61.26-29.02a.93.93 0 0 1 1.16.33c.24.38.13.86-.26 1.1l-81.54 49.22a.91.91 0 0 1-.65.1Zm20.98-20.34-15.23 15.18 61.26-36.98-46.03 21.8ZM384.1 271.71a.82.82 0 0 1-.16-.04.84.84 0 0 1-.55-.87l12.1-107.56c.05-.4.41-.7.85-.71.46.01.81.3.88.7l13.41 75.68a.75.75 0 0 1-.15.61l-25.52 31.9a.88.88 0 0 1-.86.3Zm12.46-102.28-11.1 98.6 23.39-29.24-12.29-69.36Z"/><path fill="#ED8936" fill-opacity=".52" d="M371.27 326.99a.8.8 0 0 1-.1-.02c-.43-.14-.69-.56-.59-.97l12.82-55.28a.79.79 0 0 1 .16-.31l25.5-31.89a.91.91 0 0 1 1.14-.2c.38.21.55.65.38 1.03l-38.34 87.17a.87.87 0 0 1-.97.47Zm13.8-55.72-10.67 46 31.9-72.53-21.23 26.53Z"/><path fill="#ED8936" fill-opacity=".52" d="M310 356a.92.92 0 0 1-.5-.29.78.78 0 0 1-.01-1.03l74.09-84.3a.9.9 0 0 1 1.06-.2c.36.18.56.56.47.93l-12.82 55.27a.8.8 0 0 1-.45.54l-61.26 29.02a.9.9 0 0 1-.58.07Zm72.63-81.93-69.1 78.62 57.14-27.06 11.96-51.56ZM34.06 181.77a.89.89 0 0 1-.29-.1.81.81 0 0 1-.36-1.03l38.35-87.16a.84.84 0 0 1 .67-.48c.3-.05.61.08.8.3l19.99 22.57c.27.31.28.75 0 1.05l-58.33 64.6a.89.89 0 0 1-.83.25Zm38.78-86.4-35.66 81.04 54.23-60.05-18.57-20.99Z"/><path fill="#ED8936" fill-opacity=".52" d="M92.39 117.18a.93.93 0 0 1-.5-.29L71.9 94.32a.81.81 0 0 1-.2-.65.79.79 0 0 1 .37-.55l81.53-49.23a.92.92 0 0 1 1.13.15c.3.3.31.75.05 1.06l-61.55 71.8c-.16.2-.4.3-.67.3a1 1 0 0 1-.18-.02ZM73.87 94.01l18.65 21.08L150 48.04 73.87 94.01ZM101.96 347.2a.89.89 0 0 1-.55-.36l-50.16-69.6a.77.77 0 0 1 .1-1.04.93.93 0 0 1 1.13-.05l70.44 49.38c.2.14.33.36.36.6a.77.77 0 0 1-.23.62l-20.28 20.21a.89.89 0 0 1-.8.23Zm-46.42-66.88 46.68 64.76 18.88-18.8-65.56-45.96Z"/><path fill="#ED8936" fill-opacity=".52" d="M202.24 384.84a.97.97 0 0 1-.15-.04l-100.27-37.65a.88.88 0 0 1-.54-.6.77.77 0 0 1 .2-.73l20.28-20.2a.9.9 0 0 1 1.17-.08l80 57.86c.34.26.44.7.24 1.06a.88.88 0 0 1-.93.38Zm-98.6-38.75 93.32 35.04-74.44-53.85-18.88 18.81ZM396.2 164.15a.93.93 0 0 1-.36-.16l-80-57.86a.8.8 0 0 1-.17-1.14l25.5-31.89a.88.88 0 0 1 .76-.31c.3.04.56.18.7.43l54.49 89.74c.2.34.14.76-.18 1.01a.9.9 0 0 1-.74.18Zm-78.61-58.8 75.9 54.9-51.7-85.16-24.2 30.27Z"/><path fill="#ED8936" fill-opacity=".52" d="M316.2 106.3a.93.93 0 0 1-.46-.26L255.28 45.3a.79.79 0 0 1-.1-1c.21-.31.65-.42 1.01-.31l85.97 28.85c.26.09.47.28.56.54.08.25.03.52-.13.73L317.08 106a.87.87 0 0 1-.87.3Zm-57.23-59.66 57.31 57.58L340.47 74l-81.5-27.35ZM80.28 224.74a.96.96 0 0 1-.44-.22L33.6 181.55a.78.78 0 0 1-.06-1.11l58.33-64.6a.91.91 0 0 1 1.01-.2c.36.15.57.5.53.85l-12.1 107.56a.8.8 0 0 1-.57.67.9.9 0 0 1-.47.02Zm-44.87-43.8 44.35 41.23 11.62-103.2-55.97 61.97Z"/><path fill="#ED8936" fill-opacity=".52" d="M51.8 277.6a.88.88 0 0 1-.7-.68L33.37 181.1a.78.78 0 0 1 .45-.85.93.93 0 0 1 1.02.16l46.22 42.97a.8.8 0 0 1 .18.96l-28.48 52.86a.86.86 0 0 1-.9.42h-.05Zm-16.26-94.26 16.83 90.88 27-50.13-43.83-40.75Z"/><path fill="#ED8936" fill-opacity=".52" d="M122.24 326.98a1 1 0 0 1-.34-.15l-70.44-49.38a.8.8 0 0 1-.27-1.03l28.47-52.86a.86.86 0 0 1 .83-.43c.33.04.65.24.77.54l41.96 102.24c.14.34.03.72-.28.93a.92.92 0 0 1-.7.14Zm-69.16-50.4 67.44 47.27-40.17-97.89-27.27 50.62ZM202.24 384.84a.92.92 0 0 1-.49-.26.79.79 0 0 1-.15-.88l20.19-43.19a.87.87 0 0 1 .93-.46l87.58 14.35c.34.04.7.39.74.77a.8.8 0 0 1-.6.82l-107.78 28.84a.97.97 0 0 1-.42.01Zm20.89-43.07-19.17 41 102.31-27.38-83.14-13.62Z"/><path fill="#ED8936" fill-opacity=".52" d="M202.24 384.84a.92.92 0 0 1-.36-.15l-80-57.87a.8.8 0 0 1-.28-.97.86.86 0 0 1 .92-.48l100.18 14.68c.28.05.52.2.65.42.13.23.15.5.04.73l-20.19 43.19c-.1.23-.32.4-.58.45a.88.88 0 0 1-.38 0Zm-76.64-57.36 76.44 55.28 19.3-41.27-95.74-14.01ZM200.16 88.35a.88.88 0 0 1-.68-.59c-.1-.31.01-.64.27-.84l55.6-42.8a.92.92 0 0 1 1.2.09L317 104.94c.26.27.32.64.15.95a.86.86 0 0 1-.9.41L200.2 88.36h-.04Zm55.7-42.48-53.49 41.18 111.64 17.26-58.15-58.44Z"/><path fill="#ED8936" fill-opacity=".52" d="M92.39 117.18a.9.9 0 0 1-.56-.35c-.22-.3-.2-.7.03-.97l61.55-71.8a.87.87 0 0 1 .63-.3c.25-.01.5.08.67.24l46.22 42.98c.22.2.3.5.24.78-.07.28-.3.5-.59.58L92.81 117.17a.95.95 0 0 1-.42.01Zm61.8-71.38-59.21 69.08 103.68-27.74-44.47-41.34Z"/><path fill="#ED8936" fill-opacity=".52" d="M200.16 88.35a.96.96 0 0 1-.45-.22L153.5 45.15a.8.8 0 0 1-.2-.89c.12-.3.44-.5.79-.5l101.81.18c.38 0 .71.22.84.54.13.33.04.7-.25.91l-55.6 42.8a.9.9 0 0 1-.72.16ZM156.2 45.4l44.15 41.05 53.1-40.88-97.25-.17ZM384.1 271.71a.9.9 0 0 1-.64-.48l-35.63-73.47a.77.77 0 0 1 .26-.98l47.73-34.09c.28-.2.65-.21.97-.05.3.17.48.49.44.82l-12.1 107.56a.82.82 0 0 1-.73.7c-.1.02-.2.01-.3 0Zm-34.4-74 34.02 70.14 11.56-102.68-45.57 32.54Z"/><path fill="#ED8936" fill-opacity=".52" d="M348.46 198.24a.88.88 0 0 1-.66-.56l-32.25-91.95a.77.77 0 0 1 .31-.91c.3-.2.72-.2 1.03.03l80 57.86c.21.15.35.4.35.65s-.12.5-.33.64l-47.74 34.1a.9.9 0 0 1-.7.14Zm-30.39-90.5 31 88.35 45.86-32.76-76.86-55.59ZM310 356h-.05a.86.86 0 0 1-.64-.68l-13.4-75.68a.76.76 0 0 1 .15-.62.88.88 0 0 1 .59-.3l87.5-8.62c.35-.03.7.13.87.43.18.3.14.66-.08.91l-74.09 84.3a.89.89 0 0 1-.85.27Zm-12.22-75.75 12.93 73.04 71.5-81.35-84.43 8.31Z"/><path fill="#ED8936" fill-opacity=".52" d="M222.43 341.65a.89.89 0 0 1-.68-.58c-.1-.3 0-.63.25-.83l74.18-61.33c.24-.2.56-.25.87-.15.3.1.53.36.58.66l13.4 75.68a.76.76 0 0 1-.24.7.9.9 0 0 1-.75.21l-87.58-14.35h-.03Zm73.74-60.52-71.63 59.22 84.57 13.86-12.94-73.08Z"/><path fill="#ED8936" fill-opacity=".52" d="M296.6 280.32a.92.92 0 0 1-.56-.36.78.78 0 0 1-.03-.86l51.86-82.1c.17-.25.47-.4.8-.38.31.04.62.22.75.5l35.63 73.47c.12.24.1.51-.03.74a.84.84 0 0 1-.64.4l-87.5 8.61-.28-.01Zm51.94-81.11-50.12 79.33 84.55-8.33-34.43-71ZM80.28 224.74a.93.93 0 0 1-.23-.08.83.83 0 0 1-.47-.83l12.1-107.56a.8.8 0 0 1 .56-.66c.3-.1.65-.04.9.18l58.63 50.54c.2.16.3.38.3.61 0 .24-.1.46-.3.6l-70.74 57.03a.9.9 0 0 1-.75.17Zm12.96-106.67L81.55 221.96l68.33-55.07-56.64-48.82Z"/><path fill="#ED8936" fill-opacity=".52" d="M151.03 167.72a.92.92 0 0 1-.42-.2l-58.64-50.54a.8.8 0 0 1-.27-.8c.06-.28.3-.5.59-.59l107.77-28.82c.34-.09.71.02.94.29.22.26.26.63.08.92l-49.13 79.36a.85.85 0 0 1-.61.4c-.11 0-.21 0-.31-.02Zm-56.75-50.94 56.69 48.85 47.49-76.72-104.18 27.87ZM222.43 341.65a.9.9 0 0 1-.62-.45l-41.86-79.27a.77.77 0 0 1 .07-.84c.2-.24.5-.36.83-.31l116.04 17.94c.25.03.61.28.71.58.1.31 0 .64-.24.85l-74.18 61.32a.91.91 0 0 1-.75.18Zm-40.17-79 40.6 76.88 71.94-59.48-112.54-17.4Z"/><path fill="#ED8936" fill-opacity=".52" d="M122.24 326.98a.9.9 0 0 1-.64-.52.76.76 0 0 1 .14-.81l58.32-64.6a.87.87 0 0 1 .77-.27c.3-.01.55.21.68.46l41.86 79.27c.15.27.12.6-.07.84a.87.87 0 0 1-.82.31L122.3 327l-.06-.01Zm58.31-63.91L124.1 325.6l96.98 14.2-40.52-76.73Z"/><path fill="#ED8936" fill-opacity=".52" d="M122.24 326.98a.89.89 0 0 1-.65-.52L79.63 224.22a.77.77 0 0 1 .2-.87c.23-.22.6-.28.92-.16l100.28 37.64c.27.1.47.31.54.57.08.26.01.53-.17.73l-58.32 64.59c-.2.22-.5.32-.81.26h-.03Zm-40.28-101.6 40.72 99.21 56.6-62.68-97.32-36.52Z"/><path fill="#ED8936" fill-opacity=".52" d="M180.57 262.39a.89.89 0 0 1-.14-.04L80.14 224.7a.87.87 0 0 1-.55-.63.77.77 0 0 1 .28-.75l70.74-57.03a.86.86 0 0 1 .82-.15c.29.09.52.3.6.57l29.54 94.67c.09.3 0 .62-.24.82a.9.9 0 0 1-.76.19Zm-98.46-38.7 97.3 36.53-28.66-91.85L82.1 223.7Z"/><path fill="#ED8936" fill-opacity=".52" d="M180.57 262.39a.9.9 0 0 1-.68-.6l-29.53-94.66a.76.76 0 0 1 .16-.74c.18-.2.45-.31.74-.28l103.63 10.37c.32.04.6.23.74.5.12.3.08.61-.13.84l-74.09 84.3a.89.89 0 0 1-.84.27Zm-28.18-94.53 28.7 92 72.02-81.92-100.72-10.08Z"/><path fill="#ED8936" fill-opacity=".52" d="M180.57 262.39a.9.9 0 0 1-.65-.52.78.78 0 0 1 .13-.81l74.09-84.3a.9.9 0 0 1 .81-.27c.33.1.57.25.69.53l41.94 102.23c.12.27.06.58-.13.8a.88.88 0 0 1-.8.28L180.6 262.4l-.04-.01Zm73.98-83.5-72.17 82.13 113.04 17.47-40.87-99.6Z"/><path fill="#ED8936" fill-opacity=".52" d="M296.6 280.32a.9.9 0 0 1-.65-.52l-41.94-102.24a.76.76 0 0 1 .15-.81c.2-.23.55-.23.83-.26l93.8 20.15c.28.06.52.24.64.48.11.25.1.53-.05.75l-51.86 82.09a.87.87 0 0 1-.82.38l-.1-.01Zm-40.39-101.9 40.72 99.23 50.33-79.67-91.05-19.55Z"/><path fill="#ED8936" fill-opacity=".52" d="m348.46 198.24-93.81-20.15a.9.9 0 0 1-.65-.54.77.77 0 0 1 .13-.78l61.55-71.8c.2-.23.53-.34.84-.28h.02c.3.07.56.29.66.57l32.25 91.94c.1.28.04.58-.17.8a.9.9 0 0 1-.82.24Zm-92.08-21.45 90.95 19.53-31.28-89.13-59.67 69.6Z"/><path fill="#ED8936" fill-opacity=".52" d="M254.66 178.09a.9.9 0 0 1-.6-.4l-54.5-89.75a.78.78 0 0 1 .03-.86.89.89 0 0 1 .85-.33l116.05 17.94c.23.06.57.24.69.52s.07.58-.12.8l-61.55 71.8a.87.87 0 0 1-.75.3l-.1-.02Zm-52.7-89.46 52.97 87.2 59.81-69.76-112.77-17.44Z"/><path fill="#ED8936" fill-opacity=".52" d="M151.03 167.72a.91.91 0 0 1-.6-.44.77.77 0 0 1 0-.78l49.13-79.37c.16-.25.44-.4.76-.4.3 0 .6.17.75.43l54.5 89.74c.17.27.16.6 0 .85a.87.87 0 0 1-.82.36l-103.63-10.37-.1-.02Zm49.3-78.52-47.7 77.05 100.6 10.06-52.9-87.11Z"/></svg>