<svg xmlns="http://www.w3.org/2000/svg" width="281" height="292" fill="none"><path fill="#ED8936" fill-opacity=".37" d="M220.42 264.72a.65.65 0 0 1-.5-.24.71.71 0 0 1 .06-.98l20.44-18.34c.29-.25.7-.22.94.07.24.3.21.73-.07.98l-16.04 14.49h-.01l-4.38 3.86a.66.66 0 0 1-.44.16ZM265.04 210.83a.67.67 0 0 1-.24-.05.7.7 0 0 1-.38-.9l7.21-19.7 2.3-5.98a.67.67 0 0 1 .87-.4.7.7 0 0 1 .38.9l-9.51 25.7a.67.67 0 0 1-.63.43ZM279.4 154.42a.68.68 0 0 1-.66-.65l-1.63-26.47-.12-5.53c0-.38.28-.7.64-.71.32 0 .68.28.7.65l1.66 27.65.09 4.35c0 .38-.28.7-.64.7h-.04Z"/><path fill="#ED8936" fill-opacity=".37" d="M194.12 279.77a.66.66 0 0 1-.58-.35.7.7 0 0 1 .23-.94l5.03-3.2.03-.03 21.27-11.83a.65.65 0 0 1 .9.26.7.7 0 0 1-.23.94l-3.47 2.2-22.86 12.86a.67.67 0 0 1-.32.09ZM42.27 45.04c-.2 0-.4-.1-.53-.29a.71.71 0 0 1 .1-.93l18.18-16.37 3.56-2.28c.3-.19.7-.1.9.19.2.29.15.7-.11.93l-19.9 17.46-1.84 1.18c-.11.07-.24.1-.36.1ZM242.3 49.14a.66.66 0 0 1-.42-.16l-20.41-18.1-3.33-3.37a.71.71 0 0 1-.02-.96c.25-.28.66-.3.93-.06l20.47 18.16 3.26 3.3c.26.26.27.69.03.96a.66.66 0 0 1-.5.23ZM138 290.83a.68.68 0 0 1-.67-.6.7.7 0 0 1 .54-.77l5.23-1.04h.07l26-2.32c.41-.05.68.23.73.6a.7.7 0 0 1-.54.78l-4.46.88-26.85 2.47H138Z"/><path fill="#ED8936" fill-opacity=".37" d="M63.93 26.46a.67.67 0 0 1-.63-.46.7.7 0 0 1 .31-.85l22.83-12.83a.72.72 0 0 1 .2-.07l3.49-.7c.31-.08.65.13.76.45a.7.7 0 0 1-.32.85L66.65 25.9a.56.56 0 0 1-.19.07l-2.4.47a.55.55 0 0 1-.13 0ZM224.8 260.87a.65.65 0 0 1-.48-.22.7.7 0 0 1 0-.96l5.15-5.36.05-.04 13.51-11.86a.66.66 0 0 1 .93.06c.25.27.24.7-.02.96l-2.61 2.73-16.08 14.52a.66.66 0 0 1-.45.17ZM274.55 185.15c-.04 0-.08 0-.12-.02a.69.69 0 0 1-.54-.77l3.2-24.1 1.67-6.71a.66.66 0 0 1 .78-.5.7.7 0 0 1 .53.77L276.36 180l-1.15 4.64a.67.67 0 0 1-.66.52ZM5.24 115.78l-.1-.01a.68.68 0 0 1-.57-.67l-.05-2.98a.7.7 0 0 1 .04-.26L13.46 87c.12-.32.41-.5.74-.45.32.06.56.34.56.67l.03 1.52c0 .08 0 .17-.03.24l-8.88 26.33a.67.67 0 0 1-.64.47ZM263.32 214.48c-.09 0-.17-.02.19-.06-.77-.14-.94-.52-.82-.87l5.58-16.2 3.38-7.23a.68.68 0 0 1 .88-.33.7.7 0 0 1 .35.88l-7.21 19.71-1.74 3.7a.67.67 0 0 1-.61.4Z"/><path fill="#ED8936" fill-opacity=".37" d="M44.04 43.91a.67.67 0 0 1-.6-.39.71.71 0 0 1 .17-.83l19.9-17.46c.08-.08.19-.13.3-.15l2.4-.47c.29-.07.6.1.73.4.14.28.06.62-.18.82L45.69 43.52a.7.7 0 0 1-.3.14l-1.22.24a.6.6 0 0 1-.13.01ZM25.12 225.48a.55.55 0 0 1-.43-.2l-3.07-3.07a.64.64 0 0 1-.13-.19L9.56 197.27a.71.71 0 0 1 .2-.87c.27-.2.63-.17.87.07l2.72 2.76c.06.06.1.12.13.19l12.25 25.06a.7.7 0 0 1-.2.88.64.64 0 0 1-.4.13Zm-2.48-4.18.07.07-2.76-5.65 2.69 5.58ZM221.9 31.04a.66.66 0 0 1-.32-.09L198.05 17.3a.67.67 0 0 1-.14-.1l-3.23-3.27a.72.72 0 0 1-.07-.91c.2-.28.58-.36.87-.2l23.46 13.59.14.1 3.3 3.34c.23.25.26.63.06.91a.66.66 0 0 1-.54.28ZM14.12 89.45a.69.69 0 0 1-.67-.68l-.03-1.52c0-.13.03-.27.1-.38L27.3 64.25c.2-.31.6-.4.91-.22.31.2.42.62.23.95L14.7 89.1a.67.67 0 0 1-.58.34Z"/><path fill="#ED8936" fill-opacity=".37" d="M14.09 87.93a.7.7 0 0 1-.26-.05.7.7 0 0 1-.39-.82l.58-2.32a.76.76 0 0 1 .1-.21l13.17-20.3c.21-.31.62-.4.93-.18.3.2.4.63.2.95L14.66 87.6a.66.66 0 0 1-.57.32Z"/><path fill="#ED8936" fill-opacity=".37" d="M14.67 85.6a.67.67 0 0 1-.31-.07.71.71 0 0 1-.31-.87l1.17-3.05 12.09-17.4c.22-.3.62-.37.93-.15.3.21.37.64.17.95l-13.18 20.3c-.13.19-.35.3-.56.3Z"/><path fill="#ED8936" fill-opacity=".37" d="M15.84 82.56a.65.65 0 0 1-.34-.1.7.7 0 0 1-.26-.9l1.72-3.64L27.32 64.2c.23-.3.65-.35.93-.13.3.23.36.66.15.96L16.39 82.28a.66.66 0 0 1-.55.28Z"/><path fill="#ED8936" fill-opacity=".37" d="M17.56 78.92a.68.68 0 0 1-.37-.12.71.71 0 0 1-.22-.91l2.2-4.12 8.18-9.6a.65.65 0 0 1 .93-.08c.28.24.32.67.1.97L18.1 78.66a.67.67 0 0 1-.53.26Z"/><path fill="#ED8936" fill-opacity=".37" d="M19.75 74.8a.66.66 0 0 1-.4-.13.7.7 0 0 1-.17-.92l2.59-4.41a.63.63 0 0 1 .12-.16l5.52-5.07a.65.65 0 0 1 .91.03.7.7 0 0 1 .03.95l-8.1 9.48a.65.65 0 0 1-.5.24Z"/><path fill="#ED8936" fill-opacity=".37" d="M22.34 70.4a.65.65 0 0 1-.44-.18.71.71 0 0 1-.12-.9l2.89-4.56c.1-.15.25-.26.43-.3l2.63-.52c.3-.06.59.1.72.38a.7.7 0 0 1-.15.82l-5.51 5.08a.66.66 0 0 1-.45.17Z"/><path fill="#ED8936" fill-opacity=".37" d="M25.22 65.84a.67.67 0 0 1-.56-.32.72.72 0 0 1 .02-.78l3.07-4.5c.17-.26.49-.35.78-.24a.7.7 0 0 1 .43.72l-.44 3.98a.69.69 0 0 1-.54.6l-2.63.53a.6.6 0 0 1-.13.01Zm2.1-2.57-.59.87.51-.1.09-.77Z"/><path fill="#ED8936" fill-opacity=".37" d="M27.85 65.32c-.06 0-.12 0-.18-.02a.7.7 0 0 1-.49-.75l.45-3.98a.76.76 0 0 1 .13-.34l3.13-4.3c.2-.28.58-.35.87-.19.3.18.41.56.28.89l-3.57 8.28a.67.67 0 0 1-.62.41Z"/><path fill="#ED8936" fill-opacity=".37" d="M27.85 65.32a.6.6 0 0 1-.3-.07.7.7 0 0 1-.31-.9l3.57-8.29.1-.15 3.08-3.92a.65.65 0 0 1 .9-.14c.28.2.37.6.2.92l-6.65 12.2a.67.67 0 0 1-.6.35Z"/><path fill="#ED8936" fill-opacity=".37" d="M27.85 65.32a.65.65 0 0 1-.34-.1.71.71 0 0 1-.24-.94l6.65-12.2.08-.11 2.9-3.4a.65.65 0 0 1 .9-.09.7.7 0 0 1 .17.93L28.42 65a.66.66 0 0 1-.57.32Z"/><path fill="#ED8936" fill-opacity=".37" d="M27.85 65.32a.65.65 0 0 1-.37-.11.71.71 0 0 1-.2-.96l9.56-15.58a.57.57 0 0 1 .1-.12l2.62-2.73a.65.65 0 0 1 .9-.04c.27.23.32.63.12.93L28.4 65.02c-.13.2-.34.3-.55.3Z"/><path fill="#ED8936" fill-opacity=".37" d="M27.85 65.32a.65.65 0 0 1-.39-.13.7.7 0 0 1-.16-.96l12.18-18.31c.03-.05.07-.1.12-.14l2.24-1.97a.65.65 0 0 1 .9.03c.24.23.28.63.08.92L28.39 65.04a.66.66 0 0 1-.54.28Z"/><path fill="#ED8936" fill-opacity=".37" d="M27.85 65.32a.66.66 0 0 1-.4-.14.71.71 0 0 1-.14-.97l14.43-20.28a.64.64 0 0 1 .19-.18l1.77-1.12a.65.65 0 0 1 .85.13c.21.25.22.62.02.89l-16.19 21.4a.66.66 0 0 1-.53.27Z"/><path fill="#ED8936" fill-opacity=".37" d="M27.85 65.32a.66.66 0 0 1-.42-.15.72.72 0 0 1-.1-.97l16.19-21.4c.1-.14.24-.23.4-.26l1.23-.25c.27-.05.56.08.7.34.14.25.12.57-.06.8L28.37 65.06a.65.65 0 0 1-.52.25ZM12.88 200.41a.66.66 0 0 1-.47-.2l-2.72-2.76a.69.69 0 0 1-.18-.31l-6.94-26.72a.7.7 0 0 1 .31-.78c.26-.16.6-.11.8.1l2.34 2.36c.09.08.15.19.18.3l7.33 27.13a.7.7 0 0 1-.3.79c-.11.06-.23.1-.35.1Zm-2.13-3.82.81.82-6.6-24.45-.46-.46 6.25 24.09ZM277.77 127.95c-.3 0-.56-.2-.64-.51l-6.92-25.75-.15-6.63a.7.7 0 0 1 .57-.7c.37-.04.66.16.75.5l6.93 26.71.13 5.67a.69.69 0 0 1-.67.7Zm-6.26-27.22.02.76 5.43 20.15-5.45-20.9ZM229.95 255.51a.65.65 0 0 1-.48-.2.71.71 0 0 1-.02-.95l5.71-6.65.09-.09 10.72-8.6a.66.66 0 0 1 .9.08c.24.26.24.66.01.93l-2.91 3.4-13.59 11.92a.65.65 0 0 1-.43.16Z"/><path fill="#ED8936" fill-opacity=".37" d="M14.77 90.1a.66.66 0 0 1-.47-.2l-.64-.64a.72.72 0 0 1-.11-.86l13.72-24.13a.66.66 0 0 1 .91-.25c.32.2.44.6.26.94L15.36 89.73a.67.67 0 0 1-.6.37ZM138 290.83h-.08l-26.7-3.08a.69.69 0 0 1-.59-.66.7.7 0 0 1 .55-.71l5.81-1.15c.07-.02.13-.01.2-.01l26.12 3.2c.33.03.58.32.6.66a.7.7 0 0 1-.55.7l-5.24 1.04a.63.63 0 0 1-.13.01Zm-22.21-3.95 22.18 2.56.86-.17-21.7-2.66-1.34.27ZM5.55 173.29a.65.65 0 0 1-.46-.2l-2.33-2.35a.69.69 0 0 1-.2-.45L.9 142.63a.7.7 0 0 1 .39-.67.67.67 0 0 1 .75.13l1.82 1.85a.7.7 0 0 1 .2.44l2.17 28.16a.7.7 0 0 1-.39.68c-.09.05-.19.07-.29.07Zm-1.67-3.36.87.88-2-26.05-.4-.4 1.53 25.57ZM198.38 17.4a.65.65 0 0 1-.2-.04L172.4 8.67a.67.67 0 0 1-.26-.16l-3.04-3.08a.72.72 0 0 1-.1-.85c.16-.28.49-.4.78-.3l25.56 8.5c.1.02.2.08.27.16l3.23 3.26c.22.23.27.58.1.86a.66.66 0 0 1-.57.33Zm-25.4-10 22.87 7.71-1.06-1.06-22.7-7.55.89.9Z"/><path fill="#ED8936" fill-opacity=".37" d="M3.39 145.13a.66.66 0 0 1-.47-.2L1.1 143.1a.71.71 0 0 1-.2-.6L4.58 115c.04-.26.2-.48.45-.57.24-.08.5-.02.69.16l1.25 1.28c.15.15.23.36.2.57l-3.11 28.09a.69.69 0 0 1-.44.57.63.63 0 0 1-.23.04Zm-1.11-2.8.6.62 2.92-26.34-.07-.07-3.45 25.8Z"/><path fill="#ED8936" fill-opacity=".37" d="M6.5 117.05a.66.66 0 0 1-.46-.2l-1.26-1.27a.7.7 0 0 1-.17-.73l8.88-26.32c.08-.22.26-.4.48-.45.23-.05.46.01.62.18l.65.64c.18.18.25.46.17.71l-8.27 26.95a.68.68 0 0 1-.64.49Zm-.48-2.16.18.18 2.35-7.69-2.53 7.51ZM261.12 218.58a.64.64 0 0 1-.25-.05.7.7 0 0 1-.39-.84l3.47-12.24 4.37-8.2a.65.65 0 0 1 .86-.3.7.7 0 0 1 .36.87l-5.58 16.2-2.25 4.2a.67.67 0 0 1-.59.36Zm4.4-13.22-.33.62-.54 1.9.87-2.52ZM27.85 65.32a.65.65 0 0 1-.44-.17.71.71 0 0 1-.07-.97l17.42-21.65c.12-.15.3-.24.48-.25.18 0 .37.07.5.2l.64.65c.25.26.27.69.03.96l-18.06 21a.66.66 0 0 1-.5.23ZM169.23 287.49a.67.67 0 0 1-.6-.41.7.7 0 0 1 .25-.88l6.4-4.08a.58.58 0 0 1 .18-.08l23.51-6.85c.32-.1.66.08.8.4a.7.7 0 0 1-.27.86l-5.02 3.21a.58.58 0 0 1-.17.08l-24.89 7.72a.6.6 0 0 1-.2.03Zm6.68-4.14-1.97 1.26 19.9-6.18.88-.56-18.81 5.48ZM172.62 8.7h-.08l-27-3.38a.68.68 0 0 1-.38-.2l-2.74-2.76a.72.72 0 0 1-.13-.8c.12-.26.36-.44.68-.39l26.69 3.07c.15.02.28.09.4.2l3.03 3.07c.2.2.26.53.14.8a.67.67 0 0 1-.61.4Zm-26.68-4.73 24.8 3.1-1.46-1.47-24.53-2.82 1.19 1.2Z"/><path fill="#ED8936" fill-opacity=".37" d="M199.15 276.56a.66.66 0 0 1-.55-.3.72.72 0 0 1 .12-.93l6.37-5.6a.72.72 0 0 1 .13-.08l19.28-10.1c.3-.15.68-.05.86.24.2.3.14.69-.12.92l-4.38 3.85-21.39 11.91a.65.65 0 0 1-.32.09Zm6.75-5.71-1.46 1.28 15.67-8.72-14.21 7.44ZM45.9 44.32a.66.66 0 0 1-.47-.2l-.63-.65a.72.72 0 0 1 .05-1.03L65.9 24.75c.27-.22.65-.2.9.05l1.26 1.27c.14.14.2.34.2.54a.71.71 0 0 1-.27.5L46.31 44.19a.66.66 0 0 1-.4.14Zm20.4-18.1-9.38 7.87 9.65-7.59-.28-.28ZM235.66 248.87a.65.65 0 0 1-.48-.21.7.7 0 0 1-.04-.92l6.04-7.69c.05-.06.1-.11.17-.15l7.77-4.84a.65.65 0 0 1 .85.14c.22.26.22.63.01.9l-3.08 3.9-10.83 8.72a.66.66 0 0 1-.41.15Zm6.48-7.84-2.27 2.88 6.1-4.89.58-.74-4.4 2.75ZM118.43 7.37a.66.66 0 0 1-.46-.2l-2.33-2.35a.7.7 0 0 1-.16-.72.67.67 0 0 1 .57-.46l26.78-2.47c.17-.04.4.05.53.2l2.74 2.77c.19.19.25.47.16.73a.67.67 0 0 1-.58.45l-27.2 2.05h-.05Zm-.8-2.49 1.06 1.08 25.4-1.91-1.45-1.47-25.02 2.3Z"/><path fill="#ED8936" fill-opacity=".37" d="M92.09 14.78a.65.65 0 0 1-.47-.2l-1.83-1.85a.7.7 0 0 1 .28-1.16l25.85-7.9c.24-.07.48-.02.66.16l2.32 2.35a.7.7 0 0 1 .18.67.68.68 0 0 1-.47.5l-26.34 7.4a.7.7 0 0 1-.18.03Zm-.55-2.21.74.74 24.85-6.99-1.2-1.21-24.39 7.46Z"/><path fill="#ED8936" fill-opacity=".37" d="M67.6 27.26a.66.66 0 0 1-.47-.2l-1.26-1.27a.72.72 0 0 1-.2-.6.7.7 0 0 1 .36-.51l23.91-13.06c.26-.14.58-.1.78.12l1.84 1.85a.7.7 0 0 1 .2.6.69.69 0 0 1-.37.52l-24.5 12.48c-.1.05-.2.07-.3.07Zm-.14-1.8.27.26L90.94 13.9l-.8-.81-22.68 12.37ZM258.54 223a.7.7 0 0 1-.66-.78l.97-8.01c.01-.1.04-.19.1-.28l5.08-8.65c.17-.3.53-.42.84-.27.3.14.47.5.38.83l-3.48 12.25a.82.82 0 0 1-.07.16l-2.58 4.41a.66.66 0 0 1-.58.34Zm1.63-8.47-.57 4.63.9-1.55 2.02-7.08-2.35 4ZM14.76 90.1a.67.67 0 0 1-.53-.29.72.72 0 0 1-.05-.74l13.08-24.78a.66.66 0 0 1 .9-.28.7.7 0 0 1 .3.93L16.6 89.47c-.1.2-.27.33-.47.37l-1.24.24a.6.6 0 0 1-.13.02ZM241.7 241.19a.65.65 0 0 1-.5-.23.72.72 0 0 1-.04-.89l6.15-8.43c.1-.14.26-.24.44-.27l4.75-.7c.26-.02.53.09.67.34.14.24.12.54-.04.77l-3.13 4.3a.64.64 0 0 1-.19.17l-7.77 4.84c-.1.07-.23.1-.35.1Zm6.5-8.48-3.88 5.34 4.69-2.92 2.07-2.84-2.87.42ZM272.25 191.12c-.05 0-.1 0-.15-.02a.7.7 0 0 1-.5-.75l2.15-21.4c0-.07.02-.13.05-.2l3.33-8.66c.13-.33.46-.52.8-.42a.7.7 0 0 1 .49.77l-3.2 24.1-2.34 6.14a.67.67 0 0 1-.63.44Zm2.83-21.94-1.65 16.33.5-1.31 2.42-18.32-1.27 3.3ZM111.3 287.76a.6.6 0 0 1-.2-.04l-25.57-8.5a.7.7 0 0 1-.47-.7.7.7 0 0 1 .55-.63l6.17-1.22a.65.65 0 0 1 .33.02l25.21 8.56c.3.1.48.39.47.7a.69.69 0 0 1-.55.64l-5.81 1.16a.64.64 0 0 1-.13 0Zm-22.85-9.02 22.9 7.6 3.1-.6-22.6-7.67-3.4.67Z"/><path fill="#ED8936" fill-opacity=".37" d="M255.65 227.55h-.03a.68.68 0 0 1-.56-.38l-1.79-3.63a.73.73 0 0 1 .04-.7l5.65-8.93c.17-.26.5-.37.8-.27.29.12.46.42.42.74l-.97 8.01a.7.7 0 0 1-.1.3l-2.9 4.54a.67.67 0 0 1-.56.32Zm-1-4.29 1.08 2.21 2.17-3.41.6-4.88-3.85 6.08Z"/><path fill="#ED8936" fill-opacity=".37" d="M247.84 232.76a.66.66 0 0 1-.57-.33.71.71 0 0 1 .02-.77l6.03-8.84c.14-.2.36-.35.6-.3.23.02.44.17.55.38l1.79 3.63c.1.24.09.51-.06.72l-3.06 4.5a.67.67 0 0 1-.45.3l-4.75.7h-.1Zm5.94-8.2-4.5 6.59 2.93-.44 2.66-3.91-1.1-2.24ZM27.85 65.32a.65.65 0 0 1-.45-.18.7.7 0 0 1-.05-.97l18.06-21c.18-.22.47-.3.73-.2.26.1.43.36.44.64l.03 1.52a.7.7 0 0 1-.19.5L28.33 65.1a.65.65 0 0 1-.48.21ZM270.86 102.2a.67.67 0 0 1-.6-.37l-11.91-24.05a.68.68 0 0 1-.08-.3l-.15-7.18c-.01-.32.2-.6.5-.68.3-.1.63.07.77.36l11.94 24.75c.04.1.07.2.07.3l.13 6.46a.69.69 0 0 1-.67.71ZM259.6 77.3l10.52 21.22-.07-3.3-10.54-21.84.09 3.92ZM277.75 161.04h-.06a.68.68 0 0 1-.6-.63L275 135.74c0-.08 0-.16.02-.23l2.1-8.43c.09-.33.37-.58.72-.52.32.03.58.3.6.65l1.63 26.47c.01.07 0 .15-.02.22l-1.65 6.62a.67.67 0 0 1-.65.52Zm-1.4-25.3 1.73 20.52.65-2.6-1.36-22.02-1.02 4.1Z"/><path fill="#ED8936" fill-opacity=".37" d="M16 89.85a.65.65 0 0 1-.45-.18.72.72 0 0 1-.15-.82l11.85-24.53a.67.67 0 0 1 .89-.32c.33.16.47.56.32.9L18.38 88.32a.7.7 0 0 1-.26.31l-1.77 1.13c-.1.07-.23.1-.35.1Z"/><path fill="#ED8936" fill-opacity=".37" d="M6.5 117.05a.66.66 0 0 1-.5-.23.71.71 0 0 1-.13-.67l8.26-26.96a.67.67 0 0 1 .51-.47l1.23-.24c.22-.06.47.03.63.2.15.18.2.43.15.66l-7.08 26.72a.69.69 0 0 1-.52.5l-2.42.48a.63.63 0 0 1-.13 0Zm7.27-22.09-6.29 20.5.9-.18 5.39-20.32ZM27.85 65.32a.66.66 0 0 1-.47-.2.71.71 0 0 1-.01-.97l18.09-19.49a.65.65 0 0 1 .81-.12c.26.15.4.47.32.78l-.58 2.32a.72.72 0 0 1-.19.33l-17.5 17.16a.66.66 0 0 1-.47.2ZM85.73 279.26a.65.65 0 0 1-.32-.09L61.94 265.6a.7.7 0 0 1-.33-.72c.05-.29.26-.52.54-.57l6.28-1.24c.15-.04.32 0 .45.07l23.35 13.61a.7.7 0 0 1-.2 1.3l-6.17 1.21a.63.63 0 0 1-.13.01Zm-21.52-13.95 21.64 12.53 4.13-.82-21.54-12.55-4.23.84Z"/><path fill="#ED8936" fill-opacity=".37" d="M45.94 45.84a.7.7 0 0 1-.67-.68l-.03-1.52c0-.22.1-.43.26-.56L67.2 26c.2-.16.46-.18.69-.07a.7.7 0 0 1 .38.61l.06 2.97a.7.7 0 0 1-.28.58L46.32 45.72a.66.66 0 0 1-.38.12Zm21.02-17.9-18.44 14.5 18.46-13.26-.02-1.24ZM258.94 78.16c-.2 0-.4-.1-.52-.26l-16.48-21.4a.7.7 0 0 1-.15-.42l-.15-7.62c0-.3.18-.57.45-.67.27-.1.57-.01.75.23l16.48 21.84c.09.12.14.26.14.41l.16 7.18a.69.69 0 0 1-.68.7Zm-15.8-22.35 15.09 19.61-.1-4.89-15.1-20.01.1 5.3ZM143.23 289.8a.68.68 0 0 1-.64-.48.7.7 0 0 1 .29-.8l7.52-4.81c.1-.06.2-.1.31-.1l24.89-1.6c.27-.06.58.19.68.49a.7.7 0 0 1-.29.8l-6.4 4.08a.65.65 0 0 1-.3.1l-26 2.32h-.06Zm7.73-4.81-4.98 3.17 23.04-2.04 3.98-2.55-22.04 1.42ZM205.52 270.96c-.2 0-.4-.1-.54-.28a.72.72 0 0 1 .07-.9l7.47-7.77a.62.62 0 0 1 .2-.15l16.96-7.68a.65.65 0 0 1 .82.25c.19.27.16.64-.07.88l-5.15 5.36c-.05.05-.1.1-.17.13l-19.28 10.09c-.1.05-.2.07-.3.07Zm7.86-7.88-4.44 4.62 15.47-8.1 2.58-2.68-13.61 6.16ZM17.76 88.73a.64.64 0 0 1-.4-.14.71.71 0 0 1-.21-.84l10.09-23.4c.15-.35.54-.52.87-.37.33.15.5.54.37.9l-7.86 21.44a.7.7 0 0 1-.19.28l-2.23 1.96a.67.67 0 0 1-.44.17ZM3.39 145.13a.66.66 0 0 1-.46-.18.72.72 0 0 1-.2-.59l3.1-28.08c.04-.3.26-.55.55-.6l2.41-.48c.2-.05.42.02.58.16.15.14.23.36.22.57L7.56 143.8a.68.68 0 0 1-.54.63l-3.5.7a.52.52 0 0 1-.13 0Zm3.72-28.19-2.95 26.64 2.1-.41 1.92-26.44-1.07.21ZM62.27 265.68a.66.66 0 0 1-.43-.17l-20.47-18.16a.71.71 0 0 1-.22-.71.68.68 0 0 1 .53-.5l6.18-1.22c.2-.05.4.01.56.15l20.57 18.14a.7.7 0 0 1-.3 1.21l-6.3 1.24a.63.63 0 0 1-.12.02ZM43.3 247.23l19.16 17 4.6-.9-19.27-16.99-4.5.89Z"/><path fill="#ED8936" fill-opacity=".37" d="M27.85 65.32a.65.65 0 0 1-.5-.23.71.71 0 0 1 .04-.97L44.9 46.96a.65.65 0 0 1 .84-.07.7.7 0 0 1 .24.83l-1.17 3.05c-.04.11-.1.2-.19.28L28.28 65.16a.66.66 0 0 1-.43.16ZM268.9 198.28l-.16-.02a.7.7 0 0 1-.5-.7l.63-18.19c0-.1.02-.19.06-.28l4.88-10.38c.15-.3.48-.45.8-.36.3.09.5.4.48.74l-2.16 21.4a.78.78 0 0 1-.07.24l-3.35 7.16a.68.68 0 0 1-.61.39Zm1.3-18.71-.51 14.75 1.91-4.09 1.76-17.37-3.16 6.7ZM5.55 173.29a.69.69 0 0 1-.66-.64L2.72 144.5a.69.69 0 0 1 .55-.74l3.5-.7c.18-.03.37.02.52.13a.7.7 0 0 1 .27.48l3.11 27.97a.7.7 0 0 1-.54.76l-4.45.88a.63.63 0 0 1-.13 0ZM4.11 145l2.06 26.75 3.1-.6-2.96-26.59-2.2.44ZM41.8 247.51c-.2 0-.4-.1-.53-.26L24.6 225.22a.72.72 0 0 1-.1-.68c.08-.22.27-.39.5-.43l5.82-1.16c.25-.06.5.05.65.25l17.03 21.96c.15.2.2.45.11.68a.68.68 0 0 1-.5.44l-6.18 1.22a.52.52 0 0 1-.13.01Zm-15.47-22.25 15.75 20.8 4.68-.93-16.08-20.73-4.35.86Z"/><path fill="#ED8936" fill-opacity=".37" d="M20 86.77a.66.66 0 0 1-.37-.12.7.7 0 0 1-.26-.83l7.86-21.44c.12-.35.5-.55.83-.41.35.12.53.5.44.85l-5.23 18.71a.72.72 0 0 1-.17.3l-2.63 2.73c-.13.14-.3.2-.48.2Zm2.61-5.88-.87 2.39.29-.3.58-2.1ZM25.12 225.48a.67.67 0 0 1-.59-.38l-12.24-25.07a.72.72 0 0 1 0-.62c.08-.2.26-.33.47-.37L18 198c.28-.06.58.09.72.36l12.82 24.95a.7.7 0 0 1-.46 1l-5.83 1.16a.63.63 0 0 1-.13.01ZM13.9 200.23 25.49 224l4.44-.88-12.16-23.67-3.88.77Z"/><path fill="#ED8936" fill-opacity=".37" d="M12.88 200.41c-.3 0-.56-.2-.64-.5L4.9 172.78a.72.72 0 0 1 .08-.55c.1-.17.26-.28.44-.32l4.45-.88c.33-.07.67.14.77.48l8.12 26.97c.06.19.03.4-.06.56a.67.67 0 0 1-.45.33L13 200.4a.63.63 0 0 1-.13.01ZM6.4 173.13l6.97 25.79 3.9-.77-7.73-25.64-3.14.62ZM175.63 283.4a.67.67 0 0 1-.58-.36.71.71 0 0 1 .16-.86l8.1-7.12a.68.68 0 0 1 .29-.14l21.77-5.33c.3-.07.62.08.75.37.14.28.07.63-.16.84l-6.38 5.6a.62.62 0 0 1-.25.13l-23.51 6.85a.63.63 0 0 1-.19.03Zm8.43-7.17-5.64 4.95 20.41-5.94 4.13-3.63-18.9 4.62ZM67.66 30.23a.65.65 0 0 1-.36-.1.7.7 0 0 1-.3-.58l-.07-2.97a.7.7 0 0 1 .37-.64l24.5-12.48c.2-.1.44-.1.64.03s.32.35.32.58l.09 4.32a.7.7 0 0 1-.4.65L67.93 30.17a.62.62 0 0 1-.27.06Zm.62-3.24.03 1.5L91.5 17.95l-.06-2.77L68.28 27ZM242.46 56.76a.64.64 0 0 1-.43-.17l-20.4-17.95a.7.7 0 0 1-.23-.51l-.17-7.77a.7.7 0 0 1 .39-.64.65.65 0 0 1 .72.1l20.41 18.1c.15.13.23.31.24.51l.15 7.62a.7.7 0 0 1-.39.64c-.1.05-.19.07-.29.07Zm-19.73-18.98 19.03 16.75-.11-5.76-19.04-16.88.12 5.9ZM275.67 136.38a.68.68 0 0 1-.64-.5l-7.28-24.26a.71.71 0 0 1 0-.38l2.46-9.9c.08-.3.34-.52.65-.53.3 0 .57.21.65.51l6.91 25.75c.03.12.03.24 0 .36l-2.1 8.42a.67.67 0 0 1-.63.53h-.02Zm-6.59-24.98 6.53 21.74 1.47-5.88-6.2-23.07-1.8 7.2ZM27.85 65.32c-.2 0-.4-.1-.53-.27a.71.71 0 0 1 .1-.96L43.76 50c.24-.22.6-.22.84-.02.25.2.33.55.2.85l-1.72 3.64c-.05.1-.12.2-.22.27L28.23 65.2a.65.65 0 0 1-.38.12Zm14.37-12.2-2.55 2.2 2.28-1.63.27-.57ZM8.92 116.57a.65.65 0 0 1-.4-.14.7.7 0 0 1-.25-.73l7.08-26.72a.7.7 0 0 1 .3-.41l1.76-1.13a.64.64 0 0 1 .74.03.7.7 0 0 1 .27.71l-5.39 25.64a.7.7 0 0 1-.3.44l-3.46 2.21c-.1.07-.23.1-.35.1Zm7.66-26.96-6.56 24.75 1.77-1.13 4.98-23.75-.2.13Z"/><path fill="#ED8936" fill-opacity=".37" d="M22.62 84.03a.67.67 0 0 1-.31-.08.7.7 0 0 1-.33-.8l5.23-18.72c.1-.35.42-.55.79-.48a.7.7 0 0 1 .52.78l-2.33 15.33a.72.72 0 0 1-.16.35l-2.9 3.39a.66.66 0 0 1-.5.23Zm2.91-8.6-1.43 5.14.8-.93.63-4.21Z"/><path fill="#ED8936" fill-opacity=".37" d="M27.85 65.32a.66.66 0 0 1-.58-.34.7.7 0 0 1 .2-.93L42.1 53.58c.25-.18.6-.15.83.06.23.22.29.57.14.85l-2.2 4.11a.67.67 0 0 1-.3.3l-12.42 6.35c-.1.05-.2.07-.3.07Zm12.65-8.9-4.71 3.37 4-2.05.71-1.32ZM212.99 263.2c-.2 0-.41-.1-.54-.3a.72.72 0 0 1 .04-.86l8.28-9.65c.08-.1.19-.16.3-.2l14.4-4.68c.28-.1.6.03.75.29.17.26.14.6-.06.83l-5.7 6.65a.62.62 0 0 1-.24.18l-16.96 7.67a.62.62 0 0 1-.27.06Zm8.66-9.74-6.12 7.13 14.02-6.35 4-4.65-11.9 3.87ZM92.17 19.1a.66.66 0 0 1-.4-.14.7.7 0 0 1-.26-.54l-.09-4.32c0-.32.2-.6.5-.68L118.26 6c.2-.06.41-.01.58.12a.7.7 0 0 1 .27.54l.1 5.5c.02.33-.2.62-.51.69l-26.37 6.23a.63.63 0 0 1-.16.02Zm.6-4.48.06 2.92 25.03-5.92-.08-4.04-25 7.04ZM222.06 38.8a.64.64 0 0 1-.32-.09l-23.54-13.8a.7.7 0 0 1-.34-.58l-.15-7.62a.7.7 0 0 1 .32-.6c.21-.13.47-.14.68-.02l23.52 13.65c.2.12.34.35.34.6l.17 7.76a.7.7 0 0 1-.33.6c-.1.07-.23.1-.35.1ZM199.2 23.9l22.18 13-.13-6.14-22.17-12.86.13 6ZM274.42 169.7h-.08a.68.68 0 0 1-.58-.6l-3-22.29a.72.72 0 0 1 .05-.35l4.24-11.04c.11-.3.41-.46.72-.43.3.05.54.31.57.63l2.08 24.67c.01.1 0 .21-.04.31l-3.34 8.67a.67.67 0 0 1-.62.44Zm-2.3-22.9 2.62 19.52 2.33-6.08-1.82-21.58-3.13 8.14ZM45.36 48.16a.65.65 0 0 1-.4-.13.7.7 0 0 1-.25-.74l.58-2.32a.7.7 0 0 1 .27-.4l21.72-15.6a.66.66 0 0 1 .77 0 .7.7 0 0 1 .26.74l-1.14 4.56a.69.69 0 0 1-.3.42L45.71 48.06c-.1.07-.23.1-.35.1Zm1.17-2.6-.1.42 19.51-12.33.62-2.48-20.03 14.4ZM143.23 289.8h-.08l-26.11-3.2a.69.69 0 0 1-.58-.54.71.71 0 0 1 .3-.74l8.38-5.33c.14-.09.3-.12.44-.1l25.27 3.72c.28.04.5.26.56.55a.71.71 0 0 1-.3.73l-7.53 4.8c-.1.07-.23.11-.35.1Zm-24.12-4.35 23.97 2.94 5.74-3.67-23.19-3.42-6.52 4.15Z"/><path fill="#ED8936" fill-opacity=".37" d="M25.52 80.64a.67.67 0 0 1-.27-.06.7.7 0 0 1-.39-.74l2.33-15.32c.05-.35.28-.65.7-.59.33.02.6.3.63.65l.76 11.4a.7.7 0 0 1-.15.49l-3.08 3.92a.67.67 0 0 1-.53.25Zm2.07-9.82-1.02 6.7 1.35-1.71-.33-4.99Z"/><path fill="#ED8936" fill-opacity=".37" d="M27.85 65.32a.67.67 0 0 1-.63-.47.7.7 0 0 1 .34-.85l12.42-6.36a.65.65 0 0 1 .79.16c.2.23.23.57.08.83l-2.59 4.41a.67.67 0 0 1-.44.32l-9.84 1.95a.6.6 0 0 1-.13.01Zm10.66-5.37-5.94 3.04 4.7-.93 1.24-2.11ZM264.6 206.34a.6.6 0 0 1-.14-.02.7.7 0 0 1-.53-.61l-1.32-14.54a.74.74 0 0 1 .09-.4l6.25-11.7a.67.67 0 0 1 .77-.34c.3.09.5.37.49.7l-.63 18.17c0 .12-.04.22-.1.32l-4.3 8.06a.67.67 0 0 1-.58.36Zm-.63-15.1 1.1 12.1 3.17-5.95.52-15.11-4.79 8.97ZM118.54 12.87a.66.66 0 0 1-.45-.2.72.72 0 0 1-.21-.48l-.12-5.5c0-.37.27-.68.63-.7l27.2-2.05a.6.6 0 0 1 .5.18c.13.13.2.3.21.5l.13 6.45c0 .38-.28.7-.65.71l-27.2 1.09h-.04Zm.58-5.55.08 4.13 25.87-1.03-.1-5.04-25.85 1.94ZM198.53 25.01a.71.71 0 0 1-.22-.04l-25.76-9.12a.7.7 0 0 1-.45-.65l-.15-7.18c0-.22.1-.43.28-.57.17-.13.4-.17.6-.1l25.76 8.68c.27.1.45.36.46.65l.15 7.62a.7.7 0 0 1-.27.58.66.66 0 0 1-.4.13Zm-25.1-10.32 24.41 8.65-.12-6.14-24.4-8.23.11 5.72Z"/><path fill="#ED8936" fill-opacity=".37" d="M172.76 15.88h-.09l-27.01-4.1a.69.69 0 0 1-.57-.68l-.13-6.45c0-.2.07-.4.22-.53.14-.14.3-.18.53-.18l27 3.38c.33.04.58.33.58.67l.15 7.18c0 .2-.08.4-.23.54a.66.66 0 0 1-.45.17Zm-26.34-5.4 25.66 3.9-.12-5.75-25.64-3.21.1 5.07ZM28.6 76.73a.69.69 0 0 1-.66-.65l-.76-11.4a.69.69 0 0 1 .48-.72c.3-.1.63.04.78.32l3.88 7.12c.13.24.12.54-.05.76l-3.13 4.3a.66.66 0 0 1-.54.27Zm.12-9.1.43 6.5 1.79-2.44-2.22-4.05Z"/><path fill="#ED8936" fill-opacity=".37" d="M34.8 67.93a.6.6 0 0 1-.21-.05l-6.97-2.6a.69.69 0 0 1-.44-.7.69.69 0 0 1 .55-.64L37.57 62c.26-.06.53.06.68.3.15.23.15.53 0 .76l-2.88 4.55a.67.67 0 0 1-.56.32Zm-4.42-3.1 4.16 1.56 1.72-2.72-5.88 1.16Z"/><path fill="#ED8936" fill-opacity=".37" d="M31.73 72.44h-.03a.68.68 0 0 1-.55-.35l-3.88-7.12a.72.72 0 0 1 .07-.8c.18-.2.49-.3.74-.2l6.96 2.6c.2.08.35.24.41.45.07.2.03.43-.09.61l-3.07 4.51a.67.67 0 0 1-.56.3Zm-2.4-6.52 2.47 4.53 1.96-2.88-4.43-1.65ZM221.27 253.55a.66.66 0 0 1-.55-.3.72.72 0 0 1 .04-.84l8.76-11.16a.66.66 0 0 1 .45-.25l11.66-1.2c.3-.04.53.12.66.36.13.25.1.56-.07.77l-6.04 7.68c-.08.1-.2.19-.32.23l-14.38 4.68a.63.63 0 0 1-.2.03Zm9.12-11.2-7.19 9.15 12.07-3.93 4.9-6.22-9.78 1ZM6.9 144.45a.65.65 0 0 1-.35-.1.7.7 0 0 1-.32-.65l2.02-27.87a.7.7 0 0 1 .32-.54l3.46-2.21c.2-.14.47-.14.68-.02a.7.7 0 0 1 .34.62l-.46 26.87a.7.7 0 0 1-.31.58l-5.03 3.21c-.11.07-.24.1-.36.1Zm2.66-28.17-1.9 26.17 3.6-2.3.43-25.22-2.13 1.35Z"/><path fill="#ED8936" fill-opacity=".37" d="M12.38 114.36a.68.68 0 0 1-.35-.1.7.7 0 0 1-.3-.74l5.38-25.64a.71.71 0 0 1 .22-.38l2.24-1.96c.2-.18.5-.22.75-.08a.7.7 0 0 1 .34.7l-3.22 23.75a.7.7 0 0 1-.24.43l-4.39 3.86a.66.66 0 0 1-.43.16Zm5.99-25.95-4.92 23.4 2.7-2.36 2.94-21.67-.72.63ZM268.38 112.11a.67.67 0 0 1-.58-.36l-12.2-22.93a.71.71 0 0 1-.05-.51l2.75-11.02a.66.66 0 0 1 1.24-.14l11.92 24.04c.07.15.09.33.05.5l-2.47 9.9a.68.68 0 0 1-.66.52ZM256.91 88.4l11.25 21.16 1.99-7.96-11-22.18-2.24 8.98ZM259.51 215l-.06-.01a.67.67 0 0 1-.56-.46l-3.6-10.63a.7.7 0 0 1 .05-.59l7.37-12.57a.68.68 0 0 1 .72-.32c.29.07.5.32.52.62l1.32 14.53c.01.16-.02.3-.1.43l-5.08 8.66a.67.67 0 0 1-.58.33Zm-2.86-11.25 3.03 8.93 4.23-7.2-1.1-12.22-6.16 10.5ZM117.11 286.6a.62.62 0 0 1-.2-.03l-25.21-8.56a.68.68 0 0 1-.46-.58.7.7 0 0 1 .31-.67l8.89-5.66a.65.65 0 0 1 .57-.06l24.7 8.89a.7.7 0 0 1 .13 1.25l-8.37 5.32c-.11.07-.23.1-.36.1Zm-23.62-9.44 23.54 7.99 6.9-4.39-23.06-8.3-7.38 4.7ZM44.19 51.21a.66.66 0 0 1-.45-.18.72.72 0 0 1-.17-.77l1.17-3.05a.7.7 0 0 1 .27-.34L66.18 33.5a.67.67 0 0 1 .78.06c.22.2.3.51.19.79l-2.3 5.98a.69.69 0 0 1-.32.36L44.49 51.14c-.1.05-.2.07-.3.07Zm1.71-3.27-.43 1.13 18.23-9.5 1.46-3.8L45.9 47.94ZM230.04 242.39a.67.67 0 0 1-.59-.36.72.72 0 0 1 .06-.76l8.92-12.23a.66.66 0 0 1 .72-.25l8.88 2.6c.2.07.38.24.45.45.07.22.03.46-.1.64l-6.15 8.43a.68.68 0 0 1-.47.28l-11.65 1.2h-.07Zm9.19-12.13-7.73 10.58 9.84-1 5.38-7.38-7.5-2.2Z"/><path fill="#ED8936" fill-opacity=".37" d="M253.86 223.91a.65.65 0 0 1-.47-.2l-6.17-6.6a.72.72 0 0 1-.08-.87l8.21-12.95a.66.66 0 0 1 1.2.15l3.6 10.63c.07.2.04.43-.07.6l-5.65 8.93a.68.68 0 0 1-.57.31Zm-5.3-7.37 5.2 5.57 5.02-7.9-3.05-8.98-7.17 11.31Z"/><path fill="#ED8936" fill-opacity=".37" d="M247.84 232.76a.66.66 0 0 1-.18-.03l-8.87-2.6a.68.68 0 0 1-.45-.43.72.72 0 0 1 .08-.64l8.74-12.83c.11-.17.3-.28.5-.3.19-.02.39.06.53.21l6.16 6.6c.22.24.25.6.07.88l-6.03 8.84a.66.66 0 0 1-.55.3Zm-7.78-3.7 7.5 2.2 5.44-7.97-5.22-5.58-7.72 11.35ZM183.75 276.29a.67.67 0 0 1-.59-.36.72.72 0 0 1 .11-.83l9.5-9.89c.1-.1.24-.17.38-.2l19.74-3.2c.3-.05.57.1.7.37s.08.6-.12.8l-7.47 7.78a.7.7 0 0 1-.32.19l-21.78 5.32a.6.6 0 0 1-.15.02Zm9.82-9.94-7.69 8 19.3-4.71 5.89-6.13-17.5 2.84ZM66.52 34.79a.66.66 0 0 1-.45-.18.71.71 0 0 1-.2-.7l1.14-4.55c.05-.2.2-.38.38-.46l24.52-11.13c.23-.1.5-.07.7.1.2.18.28.46.22.71l-1.66 6.62a.68.68 0 0 1-.42.48l-24 9.06a.68.68 0 0 1-.23.05Zm1.71-4.76L67.5 33l22.47-8.5 1.22-4.87-22.95 10.41Z"/><path fill="#ED8936" fill-opacity=".37" d="M150.75 285a.67.67 0 0 1-.62-.44.71.71 0 0 1 .2-.79l9.53-8.37c.12-.1.27-.16.43-.16l23.45-.34c.23.02.54.18.64.45.1.27.02.58-.2.77l-8.1 7.12c-.12.1-.26.15-.4.16L150.8 285h-.05Zm9.8-8.38-7.82 6.86 22.64-1.45 6.52-5.71-21.34.3ZM10 172.41c-.1 0-.2-.02-.29-.07a.7.7 0 0 1-.37-.55l-3.11-27.96a.7.7 0 0 1 .31-.67l5.03-3.21c.2-.12.43-.14.63-.04s.35.28.38.51l4.5 27.09a.7.7 0 0 1-.32.7l-6.4 4.1c-.11.07-.24.1-.36.1Zm-2.39-28.3 2.94 26.44 5.12-3.27-4.24-25.6-3.82 2.43ZM269.53 180.1l-.07-.01a.68.68 0 0 1-.58-.53l-4.32-19.47a.72.72 0 0 1 .05-.46l6.22-13.22c.13-.27.4-.44.7-.38.3.05.53.29.57.6l2.98 22.29c.02.13 0 .27-.06.4l-4.88 10.38a.67.67 0 0 1-.6.4Zm-3.61-20.08 3.84 17.3 3.97-8.42-2.66-19.83-5.15 10.95ZM16.77 110.5c-.1 0-.2-.02-.3-.07a.7.7 0 0 1-.36-.72l3.22-23.74a.7.7 0 0 1 .2-.39l2.62-2.73c.2-.2.5-.26.74-.15a.7.7 0 0 1 .4.66l-.7 21.12c0 .18-.08.34-.2.47l-5.14 5.35c-.13.14-.3.2-.48.2Zm3.86-24.1-2.91 21.44 3.54-3.68.64-19.08-1.27 1.32ZM91.9 278.05a.65.65 0 0 1-.32-.1l-23.35-13.6a.7.7 0 0 1-.03-1.2l9.07-5.77c.21-.14.47-.14.69-.01l23.17 13.72a.7.7 0 0 1 .01 1.2l-8.88 5.65c-.11.07-.24.1-.36.1ZM69.88 263.7l22.01 12.83 7.59-4.83-21.85-12.94-7.75 4.94Z"/><path fill="#ED8936" fill-opacity=".37" d="M271.43 147.41a.68.68 0 0 1-.63-.45l-8.04-22.32a.71.71 0 0 1 .01-.5l5-12.98c.1-.27.34-.45.64-.44.29.01.53.2.62.49l7.28 24.26c.05.16.04.32-.02.47l-4.24 11.03a.67.67 0 0 1-.62.44Zm-7.32-23 7.34 20.38 3.5-9.14-6.64-22.16-4.2 10.91ZM256.2 89.18c-.2 0-.4-.1-.52-.25L239.03 68.2a.71.71 0 0 1-.13-.62l2.92-11.7a.68.68 0 0 1 .5-.5c.27-.05.51.04.67.25l16.48 21.4c.13.17.18.4.12.6l-2.74 11.03a.68.68 0 0 1-.66.52Zm-15.92-21.6 15.6 19.41 2.33-9.36-15.43-20.05-2.5 10ZM42.48 54.85a.66.66 0 0 1-.5-.23.71.71 0 0 1-.1-.77l1.7-3.64a.68.68 0 0 1 .3-.31l20.04-10.45a.65.65 0 0 1 .78.13c.2.2.25.53.13.8l-3.36 7.15a.68.68 0 0 1-.38.35L42.71 54.8a.59.59 0 0 1-.23.04Zm2.21-3.82-.88 1.89 16.57-6.25 2.37-5.06-18.06 9.42ZM18.13 199.38a.66.66 0 0 1-.64-.49l-8.13-26.97a.7.7 0 0 1 .3-.8l6.4-4.09a.65.65 0 0 1 .57-.06c.2.07.34.22.41.42l9.24 26.26a.7.7 0 0 1-.27.83l-7.53 4.8c-.1.06-.23.1-.35.1Zm-7.33-27.36 7.71 25.6 6.33-4.03-8.78-24.93-5.26 3.36ZM90.52 25.72a.66.66 0 0 1-.5-.23.7.7 0 0 1-.15-.64l1.66-6.62a.68.68 0 0 1 .5-.5l26.37-6.23c.24-.06.46.02.63.19.16.17.23.42.17.66l-2.1 8.43a.69.69 0 0 1-.55.51l-25.92 4.42-.11.01Zm2.2-6.73-1.3 5.18 24.48-4.18 1.72-6.88-24.9 5.88ZM68.55 264.43a.65.65 0 0 1-.43-.16l-20.57-18.14a.7.7 0 0 1-.24-.58.7.7 0 0 1 .32-.54l8.88-5.66a.65.65 0 0 1 .78.06l20.76 18.03a.7.7 0 0 1 .24.58.7.7 0 0 1-.31.54l-9.07 5.77a.65.65 0 0 1-.36.1ZM49.12 245.7l19.5 17.2 7.86-5-19.68-17.1-7.68 4.9Z"/><path fill="#ED8936" fill-opacity=".37" d="M47.98 246.3c-.2 0-.4-.1-.52-.27l-17.03-21.96a.7.7 0 0 1 .17-1.03l8.36-5.33a.65.65 0 0 1 .87.14l17.54 21.64a.71.71 0 0 1-.16 1.04l-8.88 5.66a.66.66 0 0 1-.35.1ZM31.95 223.8l16.19 20.88 7.7-4.92-16.67-20.56-7.22 4.6Z"/><path fill="#ED8936" fill-opacity=".37" d="M30.95 224.33c-.06 0-.12 0-.18-.02a.7.7 0 0 1-.41-.35l-12.82-24.95a.71.71 0 0 1 .24-.92l7.52-4.8a.66.66 0 0 1 .93.25l13.66 24.41a.7.7 0 0 1-.23.94l-8.36 5.34c-.1.07-.23.1-.35.1Zm-11.93-25.4 12.19 23.73 7.2-4.6-13-23.2-6.4 4.07ZM11.92 141.24c-.1 0-.2-.03-.28-.07a.7.7 0 0 1-.39-.64l.46-26.87c0-.2.09-.4.24-.52l4.39-3.86c.2-.17.46-.2.7-.1.23.1.39.32.4.59l1.53 25.14a.7.7 0 0 1-.24.57l-6.37 5.6a.66.66 0 0 1-.44.16Zm1.13-27.25-.43 25.03 4.99-4.37-1.42-23.42-3.14 2.77ZM21.91 105.15a.64.64 0 0 1-.24-.05.7.7 0 0 1-.42-.67l.7-21.11c.01-.17.07-.32.18-.44l2.9-3.4c.17-.2.43-.28.7-.2a.7.7 0 0 1 .46.59l2.1 17.86c.02.2-.04.4-.17.54l-5.7 6.65a.66.66 0 0 1-.5.23Zm1.38-21.54-.64 18.95 4.27-4.98-1.88-16.01-1.75 2.04ZM193.25 266.4a.67.67 0 0 1-.59-.37.72.72 0 0 1 .1-.8l10.52-12.27c.12-.14.3-.23.48-.23l17.5-.57c.26.03.51.15.62.4.12.25.07.55-.1.75l-8.28 9.65c-.1.12-.25.2-.4.23l-19.74 3.2a.7.7 0 0 1-.11 0Zm10.84-12.3-9.1 10.61 17.66-2.86 7.09-8.25-15.65.5ZM239.54 68.45a.65.65 0 0 1-.43-.17l-20.45-17.7a.7.7 0 0 1-.22-.72l2.98-11.92a.68.68 0 0 1 .44-.49.64.64 0 0 1 .64.13l20.4 17.95c.2.18.28.45.21.7l-2.92 11.7a.68.68 0 0 1-.65.52Zm-19.7-18.66 19.32 16.72 2.55-10.2-19.26-16.95-2.6 10.43ZM40.27 58.96a.66.66 0 0 1-.54-.29.72.72 0 0 1-.04-.74l2.2-4.11c.08-.15.21-.26.36-.32l18.38-6.93a.64.64 0 0 1 .74.2c.18.22.21.54.08.8l-4.31 8.05a.67.67 0 0 1-.47.35L40.4 58.95a.51.51 0 0 1-.12.01Zm2.67-4.24-1.4 2.61 14.58-2.67 3.29-6.15-16.47 6.21ZM150.75 285l-.09-.01-25.26-3.72a.68.68 0 0 1-.56-.5.71.71 0 0 1 .22-.72l10.6-9.3a.67.67 0 0 1 .55-.15l24.2 4.65c.26.05.47.24.53.5a.71.71 0 0 1-.21.71l-9.54 8.37a.65.65 0 0 1-.44.17Zm-23.69-4.89 23.5 3.46 8.22-7.22-22.5-4.33-9.22 8.1ZM64.22 40.76a.66.66 0 0 1-.5-.23.71.71 0 0 1-.12-.72l2.3-5.98a.68.68 0 0 1 .4-.39l24-9.06c.24-.1.52-.03.7.16.19.2.24.49.14.74l-3.33 8.68a.68.68 0 0 1-.45.4L64.4 40.75a.67.67 0 0 1-.18.02Zm2.82-6.12-1.7 4.4 21.35-5.92 2.66-6.9-22.31 8.42ZM143.28 21.7l-26.85-.4c-.2 0-.4-.1-.52-.27a.71.71 0 0 1-.11-.6l2.1-8.43c.07-.3.33-.5.62-.52l27.21-1.09c.24 0 .42.1.55.26.13.17.18.4.13.61l-2.47 9.92a.68.68 0 0 1-.66.52Zm-25.97-1.78 25.46.38 2.11-8.48-25.8 1.03-1.77 7.07ZM263.28 191.8h-.05a.67.67 0 0 1-.57-.45l-6.02-16.27a.72.72 0 0 1 .04-.59l7.95-14.9c.13-.25.4-.38.68-.34.27.03.5.25.56.53l4.32 19.46c.04.17.01.34-.07.5l-6.25 11.7a.67.67 0 0 1-.6.36ZM258 174.88l5.4 14.58 5.43-10.17-3.88-17.43-6.95 13.02Z"/><path fill="#ED8936" fill-opacity=".37" d="M27.62 98.5a.72.72 0 0 1-.19-.02.69.69 0 0 1-.48-.59l-2.09-17.86a.7.7 0 0 1 .15-.52l3.08-3.92c.15-.2.38-.3.63-.24.24.04.43.2.52.44l5.05 14.1c.08.23.04.49-.11.68l-6.04 7.68a.66.66 0 0 1-.52.26Zm-1.4-18.34L28.1 96.1l4.8-6.1-4.51-12.6-2.16 2.75ZM219.09 50.73a.67.67 0 0 1-.33-.09L195.28 36.6a.7.7 0 0 1-.32-.77l2.92-11.69c.05-.2.2-.38.39-.46.2-.1.41-.08.6.03l23.53 13.8c.26.15.4.47.31.77l-2.97 11.93a.69.69 0 0 1-.39.47.68.68 0 0 1-.26.05Zm-22.7-15.07 22.27 13.32 2.63-10.53-22.33-13.08-2.57 10.3Z"/><path fill="#ED8936" fill-opacity=".37" d="M195.6 36.7a.63.63 0 0 1-.22-.05l-25.6-9.8a.7.7 0 0 1-.41-.83l2.75-11a.68.68 0 0 1 .33-.44c.16-.1.36-.1.54-.05l25.76 9.13a.7.7 0 0 1 .43.83l-2.92 11.68a.7.7 0 0 1-.34.45c-.1.05-.2.08-.31.08Zm-24.78-10.94 24.33 9.32 2.58-10.31-24.5-8.68-2.41 9.67Z"/><path fill="#ED8936" fill-opacity=".37" d="m170.01 26.89-.12-.01-26.73-5.2a.66.66 0 0 1-.44-.3.71.71 0 0 1-.08-.55l2.47-9.91a.7.7 0 0 1 .74-.52l27.02 4.1c.18.03.35.14.46.3.1.17.13.37.09.56l-2.75 11a.67.67 0 0 1-.66.53Zm-25.9-6.43 25.41 4.93 2.41-9.63-25.67-3.9-2.14 8.6ZM51.47 64.63h-.05l-13.79-1.26a.67.67 0 0 1-.54-.38.71.71 0 0 1 .03-.67l2.58-4.41c.1-.17.27-.3.46-.32l16.28-2.99c.26-.06.52.06.67.29.15.23.16.52.02.75l-5.08 8.66a.67.67 0 0 1-.58.33ZM38.82 62.1l12.3 1.12 4.1-6.97-14.53 2.66-1.87 3.19ZM160.3 276.63a.67.67 0 0 1-.62-.43.71.71 0 0 1 .14-.76L171 263.81a.63.63 0 0 1 .52-.2l21.77 1.4c.27.01.5.19.59.44.1.26.03.55-.15.74l-9.5 9.9c-.13.12-.3.2-.47.2l-23.46.33ZM171.73 265l-9.8 10.2 21.53-.3 8.26-8.61-20-1.29ZM33.65 90.83l-.09-.01a.67.67 0 0 1-.53-.45l-5.05-14.1a.72.72 0 0 1 .1-.66l3.12-4.29a.66.66 0 0 1 .52-.27c.13-.02.4.08.53.25l8.07 9.96c.2.25.21.6.02.87l-6.15 8.42a.66.66 0 0 1-.54.28Zm-4.29-14.69 4.5 12.56 5.1-6.97-7.2-8.87-2.4 3.28Z"/><path fill="#ED8936" fill-opacity=".37" d="M45.82 73.56c-.1 0-.2-.03-.3-.07l-11-5.64a.7.7 0 0 1-.26-1l2.87-4.55c.14-.21.37-.36.62-.31l13.79 1.26c.23.02.44.16.54.38.1.22.09.48-.04.69l-5.65 8.92a.67.67 0 0 1-.57.32Zm-10.03-6.6 9.8 5 4.71-7.43-12.27-1.12-2.24 3.54Z"/><path fill="#ED8936" fill-opacity=".37" d="M39.8 82.4c-.2 0-.38-.09-.5-.25l-8.07-9.96a.71.71 0 0 1-.04-.85l3.08-4.51c.19-.28.55-.37.84-.22l11.01 5.63c.18.1.3.26.36.45.04.2 0 .4-.1.57l-6.02 8.85a.67.67 0 0 1-.53.3h-.03ZM32.6 71.7l7.17 8.87 5.07-7.44-9.8-5.01-2.44 3.59ZM263.39 125.09a.67.67 0 0 1-.57-.33l-12.74-21.5a.72.72 0 0 1-.06-.62l5.55-14.41c.1-.25.32-.43.58-.44.26-.03.51.12.63.36l12.2 22.93c.1.18.1.4.03.6l-5 12.97a.68.68 0 0 1-.56.44h-.06Zm-12-22.26 11.88 20.02 4.38-11.39-11.36-21.35-4.9 12.72ZM203.78 254.12a.67.67 0 0 1-.6-.4.72.72 0 0 1 .08-.74l11.17-14.2c.15-.19.38-.3.62-.24l15.1 2.47c.23.03.43.2.52.43.08.24.04.5-.11.69l-8.77 11.16a.67.67 0 0 1-.5.26l-17.49.57h-.02Zm11.44-14.15-9.99 12.7 15.72-.5 7.84-9.98-13.57-2.22ZM16.4 168.32a.69.69 0 0 1-.66-.58l-4.48-27.08a.72.72 0 0 1 .23-.65l6.38-5.59c.17-.16.42-.2.63-.13.23.08.4.26.45.5l6.21 25.55a.7.7 0 0 1-.22.7l-8.1 7.12a.66.66 0 0 1-.43.16Zm-3.75-27.5 4.22 25.49 6.89-6.05-5.85-24.06-5.26 4.61Z"/><path fill="#ED8936" fill-opacity=".37" d="M18.3 135.65a.62.62 0 0 1-.24-.05.69.69 0 0 1-.43-.6l-1.53-25.15a.7.7 0 0 1 .2-.53l5.14-5.35a.65.65 0 0 1 .68-.17c.24.07.42.28.46.54l3.84 22.72a.7.7 0 0 1-.18.6l-7.47 7.78c-.13.14-.3.2-.48.2Zm-.84-25.57 1.41 23.29 6.17-6.43-3.56-21.04-4.02 4.18ZM255.9 204.37a.66.66 0 0 1-.55-.32l-8.04-12.84a.71.71 0 0 1-.01-.74l9.39-16c.13-.23.36-.39.63-.33.26.02.48.2.57.44l6.02 16.27c.07.2.05.43-.05.61l-7.37 12.57a.67.67 0 0 1-.57.34h-.01Zm-7.24-13.55 7.23 11.55 6.65-11.34-5.41-14.63-8.47 14.42ZM265.2 160.63a.68.68 0 0 1-.6-.4l-9.11-20a.73.73 0 0 1 0-.6l7.3-15.54c.12-.25.36-.4.64-.4.27.02.5.2.6.46l8.03 22.32c.07.18.06.38-.02.55l-6.22 13.22a.68.68 0 0 1-.61.39Zm-8.36-20.7 8.38 18.4 5.48-11.65-7.39-20.53-6.47 13.78ZM125.49 281.28a.66.66 0 0 1-.22-.04l-24.7-8.9a.68.68 0 0 1-.44-.52.71.71 0 0 1 .23-.66l11.25-9.89c.19-.16.44-.2.67-.11l24.05 9.47c.22.09.38.29.42.53a.72.72 0 0 1-.23.65l-10.6 9.3a.67.67 0 0 1-.43.17Zm-23.37-9.85 23.23 8.37 9.44-8.29-22.62-8.9-10.05 8.82ZM60.86 47.92a.67.67 0 0 1-.54-.28.73.73 0 0 1-.06-.72l3.36-7.16a.68.68 0 0 1 .43-.36l22.97-6.37c.26-.07.52.02.69.23.17.2.2.5.09.74L82.9 44.4c-.1.2-.29.35-.5.38l-21.45 3.15h-.1Zm3.83-7.26-2.67 5.7 19.84-2.91 4.09-8.69-21.26 5.9ZM230.03 242.39l-.1-.01-15.1-2.47a.67.67 0 0 1-.5-.43.72.72 0 0 1 .08-.68l11.36-15.56a.66.66 0 0 1 .8-.22l12.67 5.8a.7.7 0 0 1 .38.47c.05.2 0 .42-.12.6l-8.93 12.22a.67.67 0 0 1-.53.28Zm-13.88-3.67 13.6 2.22 8.17-11.2-11.4-5.22-10.37 14.2Z"/><path fill="#ED8936" fill-opacity=".37" d="M87.19 34.4a.66.66 0 0 1-.54-.29.72.72 0 0 1-.08-.67l3.33-8.67a.68.68 0 0 1 .51-.43l25.92-4.42c.26-.04.48.05.64.25.15.2.19.46.1.7l-4.25 11.02a.67.67 0 0 1-.57.44l-25 2.06h-.06ZM91 25.64l-2.79 7.27 23.52-1.95 3.65-9.48L91 25.65ZM247.7 217.32a.66.66 0 0 1-.44-.17L237 207.84a.71.71 0 0 1-.12-.9l10.44-16.5c.13-.19.34-.3.56-.3.23 0 .44.11.56.31l8.05 12.85a.7.7 0 0 1 0 .75l-8.22 12.96a.66.66 0 0 1-.46.3l-.1.01Zm-9.39-10.13 9.25 8.39 7.55-11.9-7.24-11.58-9.56 15.09Z"/><path fill="#ED8936" fill-opacity=".37" d="M238.97 230.16a.66.66 0 0 1-.27-.06l-12.67-5.8a.7.7 0 0 1-.37-.46.72.72 0 0 1 .1-.58l11.12-16.34a.66.66 0 0 1 .99-.13l10.28 9.31c.25.24.3.64.1.93l-8.73 12.83c-.13.2-.34.3-.56.3Zm-11.64-6.8 11.4 5.24 8.08-11.86-9.27-8.4-10.21 15.03ZM25.65 194.58a.68.68 0 0 1-.62-.46l-9.25-26.25a.71.71 0 0 1 .2-.78l8.1-7.11a.7.7 0 0 1 .58-.15c.2.05.38.2.47.4l10.68 25c.12.28.04.61-.18.81l-9.54 8.38a.66.66 0 0 1-.44.16Zm-8.45-26.74 8.75 24.87 8.43-7.39-10.12-23.68-7.06 6.2ZM250.64 103.59a.66.66 0 0 1-.5-.23l-16.97-19.84a.71.71 0 0 1-.13-.72l5.88-15.3c.09-.23.29-.4.52-.44.22-.03.47.06.62.25l16.65 20.73c.16.2.2.46.1.7l-5.54 14.41a.67.67 0 0 1-.63.44Zm-16.2-20.67 15.99 18.67 5-12.98-15.68-19.52-5.3 13.83ZM100.79 272.39a.66.66 0 0 1-.33-.1l-23.17-13.72a.7.7 0 0 1-.1-1.13l11.47-10.07a.66.66 0 0 1 .77-.07l22.95 13.9a.7.7 0 0 1 .33.55.7.7 0 0 1-.24.59l-11.24 9.88a.67.67 0 0 1-.44.17Zm-22-14.53 21.93 12.99 10.17-8.94-21.72-13.17-10.38 9.12ZM25.76 127.87a.68.68 0 0 1-.65-.57l-3.85-22.72a.7.7 0 0 1 .16-.58l5.7-6.65c.16-.19.4-.28.63-.22.24.05.43.22.5.46l6.43 19.72c.08.23.03.5-.13.68l-8.29 9.65a.66.66 0 0 1-.5.23Zm-3.13-23.2 3.55 20.97 7.1-8.27-5.93-18.2-4.72 5.5ZM193.25 266.4h-.04l-21.78-1.4a.68.68 0 0 1-.58-.43.71.71 0 0 1 .12-.73l12.4-14.44c.15-.18.39-.26.6-.22l19.93 3.56c.24.04.44.21.51.45a.7.7 0 0 1-.13.7l-10.53 12.27a.66.66 0 0 1-.5.23Zm-20.36-2.7 20.08 1.28 9.51-11.09-18.36-3.28-11.23 13.09Z"/><path fill="#ED8936" fill-opacity=".37" d="M39.3 219a.68.68 0 0 1-.58-.35l-13.65-24.41a.71.71 0 0 1 .15-.88l9.54-8.38a.7.7 0 0 1 .53-.16c.2.03.36.15.47.32l14.71 23.48c.19.3.13.69-.13.91l-10.6 9.3a.65.65 0 0 1-.43.17Zm-12.78-24.96 12.97 23.2 9.54-8.37-13.98-22.32-8.53 7.5ZM160.3 276.63l-.13-.01-24.2-4.66a.7.7 0 0 1-.52-.47.72.72 0 0 1 .16-.7l12.42-12.93c.17-.17.4-.24.64-.18l22.97 5.95a.7.7 0 0 1 .48.49c.06.24 0 .5-.17.67l-11.18 11.63c-.13.13-.3.2-.48.2Zm-22.84-5.8 22.61 4.35 10.1-10.5-21.45-5.56-11.26 11.72ZM77.62 258.66a.65.65 0 0 1-.43-.16l-20.76-18.03a.71.71 0 0 1 0-1.06l11.25-9.88c.24-.21.6-.22.86-.01l20.98 17.84a.71.71 0 0 1 0 1.07L78.07 258.5a.67.67 0 0 1-.44.16ZM57.9 239.94l19.72 17.12 10.43-9.16-19.93-16.94-10.22 8.98Z"/><path fill="#ED8936" fill-opacity=".37" d="M56.85 240.63h-.05a.65.65 0 0 1-.45-.24L38.8 218.75a.71.71 0 0 1 .08-.98l10.6-9.3c.28-.24.69-.21.93.07l18.2 21.05c.12.15.18.33.17.52a.71.71 0 0 1-.24.48l-11.25 9.88a.66.66 0 0 1-.44.16Zm-16.6-22.24 16.69 20.57 10.21-8.97-17.3-20.02-9.6 8.42ZM76.05 56.48h-.01l-19.5-.5a.67.67 0 0 1-.57-.35.71.71 0 0 1 0-.68l4.3-8.06c.1-.2.29-.32.5-.35l21.44-3.15c.27-.02.5.08.65.3.15.22.16.5.03.73l-6.25 11.7a.66.66 0 0 1-.59.36Zm-18.37-1.86 17.99.46 5.4-10.11-19.78 2.9-3.61 6.75ZM138.29 34.67h-.05l-26.1-2.34a.66.66 0 0 1-.51-.33.72.72 0 0 1-.06-.62l4.25-11.03c.1-.27.35-.44.63-.44l26.85.4c.22 0 .42.11.55.3.12.2.14.44.06.65l-5 12.97a.67.67 0 0 1-.62.44Zm-25.14-3.65 24.7 2.22 4.46-11.56-25.41-.37-3.75 9.71ZM257.26 175.52a.67.67 0 0 1-.56-.32l-10.52-17.38a.72.72 0 0 1-.02-.7l9.35-17.53a.68.68 0 0 1 .6-.35c.26 0 .48.16.6.4l9.11 20c.1.2.08.44-.02.63l-7.95 14.9a.67.67 0 0 1-.57.35h-.02Zm-9.74-18.1 9.7 16.04 7.24-13.55-8.41-18.46-8.53 15.98ZM24.5 161.2c-.05 0-.11 0-.17-.02a.69.69 0 0 1-.47-.5l-6.21-25.56a.71.71 0 0 1 .17-.66l7.47-7.77c.16-.17.39-.24.62-.2.22.06.4.23.48.45l8.26 23.44a.7.7 0 0 1-.15.73L25 161c-.13.13-.3.2-.48.2Zm-5.46-26.03 5.83 23.98 8.38-8.7-7.76-22-6.45 6.72ZM233.66 83.75a.66.66 0 0 1-.42-.15l-20.58-17.42a.7.7 0 0 1-.2-.8l6-15.6c.09-.2.26-.36.47-.42.21-.05.43 0 .6.15l20.44 17.7c.22.2.3.52.2.8l-5.88 15.3a.68.68 0 0 1-.46.42.64.64 0 0 1-.17.02ZM213.9 65.43l19.5 16.49 5.35-13.96-19.37-16.77-5.48 14.24Z"/><path fill="#ED8936" fill-opacity=".37" d="M256.09 140.63a.67.67 0 0 1-.54-.3l-13.57-19.76a.72.72 0 0 1-.06-.7l8.12-17.28a.68.68 0 0 1 .58-.39.7.7 0 0 1 .6.33l12.75 21.5c.11.2.13.45.03.67l-7.3 15.53a.67.67 0 0 1-.55.4h-.06ZM243.3 120.1l12.68 18.47 6.65-14.14-11.91-20.1-7.42 15.77ZM34.04 118.22h-.11a.69.69 0 0 1-.52-.47l-6.43-19.71a.72.72 0 0 1 .12-.67l6.04-7.68c.14-.17.36-.29.57-.25.22.02.41.14.53.34l9.16 16.24c.15.25.12.57-.06.8l-8.77 11.15a.66.66 0 0 1-.53.25Zm-5.67-20.27 5.92 18.17 7.72-9.81-8.44-14.96-5.2 6.6ZM164.47 41.32l-.16-.02-26.18-6.65a.68.68 0 0 1-.43-.36.71.71 0 0 1-.03-.57l5-12.97c.12-.31.44-.5.74-.43l26.73 5.2c.2.03.37.16.46.34.1.18.12.4.04.6l-5.55 14.42a.67.67 0 0 1-.62.44Zm-25.27-7.83 24.86 6.31 5.03-13.08-25.38-4.93-4.5 11.7ZM213.08 66.34a.63.63 0 0 1-.33-.1L189.38 51.9a.7.7 0 0 1-.28-.85l5.89-15.3a.7.7 0 0 1 .4-.4.68.68 0 0 1 .56.05l23.48 14.04c.29.17.4.54.28.86l-6 15.6a.68.68 0 0 1-.63.44ZM190.56 51l22.2 13.62 5.5-14.29L195.95 37l-5.39 14.01Z"/><path fill="#ED8936" fill-opacity=".37" d="M189.72 52a.62.62 0 0 1-.25-.05l-25.25-10.69a.7.7 0 0 1-.37-.9l5.55-14.42a.66.66 0 0 1 .85-.4l25.6 9.8a.72.72 0 0 1 .4.9l-5.9 15.32a.68.68 0 0 1-.63.44Zm-24.38-11.76 24.01 10.16 5.39-14-24.34-9.32-5.06 13.16ZM68.68 69.05l-.16-.02-17.2-4.42a.68.68 0 0 1-.46-.4.71.71 0 0 1 .04-.64l5.08-8.65c.12-.21.3-.28.6-.33l19.5.5c.23 0 .45.14.56.36.12.22.11.48-.01.7L69.26 68.7a.66.66 0 0 1-.58.34Zm-16.16-5.56 15.85 4.07 6.5-11.11-17.94-.46-4.4 7.5ZM105.98 45.55h-.02l-23.67-.77a.66.66 0 0 1-.56-.34.73.73 0 0 1-.03-.66l4.89-10.39c.1-.22.31-.37.55-.38l25-2.07c.25-.03.48.1.6.3.15.21.16.48.06.7l-6.21 13.22a.67.67 0 0 1-.6.39Zm-22.62-2.13 22.21.73 5.5-11.73-23.44 1.94-4.27 9.06ZM42.82 107.07h-.03a.67.67 0 0 1-.55-.34l-9.16-16.25a.73.73 0 0 1 .04-.77l6.15-8.42c.12-.16.3-.26.5-.27.17-.05.38.06.51.2l11.94 12.44c.23.24.26.63.06.9l-8.92 12.23a.67.67 0 0 1-.54.28Zm-8.36-16.89 8.44 14.94 7.96-10.91-10.98-11.45-5.42 7.42Z"/><path fill="#ED8936" fill-opacity=".37" d="M60.47 82a.65.65 0 0 1-.32-.09L45.5 73.47a.71.71 0 0 1-.24-.99l5.66-8.92a.66.66 0 0 1 .72-.3l17.2 4.42c.22.05.39.2.47.42a.7.7 0 0 1-.07.63l-8.2 12.96a.66.66 0 0 1-.57.3Zm-13.69-9.38 13.48 7.76L67.6 68.8l-15.82-4.06-5 7.89Z"/><path fill="#ED8936" fill-opacity=".37" d="M51.74 94.84a.67.67 0 0 1-.48-.2L39.33 82.2a.71.71 0 0 1-.07-.9l6.02-8.84c.2-.29.57-.37.87-.2L60.8 80.7c.17.1.29.26.33.45.04.2 0 .4-.1.55l-8.74 12.85a.67.67 0 0 1-.5.29h-.05ZM40.68 81.63l10.97 11.44 7.85-11.53-13.47-7.77-5.35 7.86ZM203.78 254.12a.6.6 0 0 1-.11-.01l-19.92-3.56a.68.68 0 0 1-.51-.45.72.72 0 0 1 .1-.68l13.13-16.7a.64.64 0 0 1 .73-.22l17.96 6.06c.2.07.37.25.43.46.06.23.02.46-.12.64l-11.17 14.2a.66.66 0 0 1-.52.26Zm-18.67-4.74 18.4 3.29 10.3-13.1-16.59-5.6-12.11 15.4ZM136.09 271.98a.66.66 0 0 1-.24-.05l-24.05-9.48a.68.68 0 0 1-.41-.5.71.71 0 0 1 .17-.63l13.2-13.71c.18-.2.47-.26.73-.15l23.28 10.25a.7.7 0 0 1 .22 1.13l-12.43 12.93c-.13.13-.3.2-.47.2Zm-22.84-10.44 22.67 8.93 11.42-11.88-21.96-9.67-12.13 12.62ZM247.87 191.52a.66.66 0 0 1-.5-.24l-12.17-14.56a.72.72 0 0 1-.06-.82l11.03-18.81c.12-.2.34-.34.57-.34.27.02.45.12.57.33l10.52 17.38c.14.22.14.5 0 .73l-9.38 16a.67.67 0 0 1-.52.33h-.06Zm-11.33-15.33 11.24 13.46 8.7-14.82-9.73-16.06-10.21 17.42ZM35.2 186.2h-.13a.68.68 0 0 1-.49-.4l-10.68-25a.72.72 0 0 1 .14-.78l9.51-9.9a.69.69 0 0 1 .57-.19c.21.03.4.16.5.35l12.34 23.26c.14.27.1.61-.1.83L35.66 186c-.13.14-.3.21-.48.2Zm-9.89-25.54 10.1 23.64 10.13-10.54-11.67-22-8.56 8.9Z"/><path fill="#ED8936" fill-opacity=".37" d="M214.94 239.92a.66.66 0 0 1-.2-.04l-17.96-6.05a.7.7 0 0 1-.43-.46.72.72 0 0 1 .1-.62l13.36-18.31c.2-.27.56-.36.85-.2l15.96 8.8a.72.72 0 0 1 .22 1.03l-11.36 15.57a.66.66 0 0 1-.54.28Zm-16.85-7.11 16.61 5.6 10.6-14.52-14.76-8.14-12.45 17.06ZM34.02 151.31a.67.67 0 0 1-.62-.45l-8.27-23.44a.71.71 0 0 1 .13-.7l8.29-9.65a.65.65 0 0 1 .58-.23c.22.03.4.16.51.37l10.51 20.81c.13.26.1.57-.1.78l-10.52 12.28a.67.67 0 0 1-.5.23Zm-7.49-23.98 7.74 21.96 9.48-11.05-9.85-19.5-7.37 8.59ZM237.42 208.01a.65.65 0 0 1-.41-.15L223 196.19a.71.71 0 0 1-.14-.92l12.29-19.39c.11-.18.3-.3.51-.3.25-.05.42.06.56.23l12.16 14.56c.2.24.22.58.05.84L238 207.7a.67.67 0 0 1-.57.31Zm-13.1-12.5 12.95 10.79 9.76-15.41-11.25-13.48-11.47 18.1Z"/><path fill="#ED8936" fill-opacity=".37" d="M226.3 224.35a.65.65 0 0 1-.3-.08l-15.97-8.8a.7.7 0 0 1-.23-1.01l13.07-19.21c.1-.16.27-.26.45-.29.2-.02.37.03.52.15l14 11.66c.28.23.34.64.13.94l-11.12 16.35c-.13.19-.33.3-.55.3Zm-14.97-9.74 14.77 8.15 10.42-15.31-12.97-10.8-12.22 17.96ZM171.47 265c-.05 0-.1 0-.16-.02l-22.96-5.95a.68.68 0 0 1-.48-.47.71.71 0 0 1 .14-.67l13.76-16.04a.66.66 0 0 1 .72-.2l21.59 7.55c.21.08.37.26.43.48.06.23 0 .47-.14.64l-12.4 14.44a.66.66 0 0 1-.5.24Zm-21.72-7.05 21.5 5.58 11.44-13.35-20.21-7.06-12.73 14.83ZM242.52 120.86a.66.66 0 0 1-.48-.2l-17.48-18.78a.72.72 0 0 1-.13-.79l8.63-18.34c.1-.2.3-.35.51-.38.24-.03.45.06.6.23l16.98 19.83c.18.21.22.52.1.77l-8.12 17.27a.67.67 0 0 1-.6.4Zm-16.68-19.6 16.5 17.71 7.51-15.96-16.02-18.71-7.99 16.96ZM130.99 50.21h-.12l-25-4.67a.67.67 0 0 1-.48-.37.72.72 0 0 1 0-.62l6.2-13.22c.13-.26.4-.43.66-.39l26.1 2.35c.22.02.42.15.53.34.1.2.12.44.02.65l-7.3 15.54a.67.67 0 0 1-.61.4Zm-24.01-5.88 23.63 4.41 6.65-14.16-24.66-2.21-5.62 11.96Z"/><path fill="#ED8936" fill-opacity=".37" d="M98.03 60.44h-.1l-22-3.97a.68.68 0 0 1-.48-.39.71.71 0 0 1 .02-.63l6.25-11.7c.13-.23.33-.4.61-.36l23.68.77c.23 0 .44.14.56.35a.7.7 0 0 1 0 .68l-7.95 14.9a.67.67 0 0 1-.59.35ZM77.1 55.27l20.58 3.7 7.19-13.46-22.17-.72-5.6 10.48ZM112.04 262.5a.65.65 0 0 1-.34-.1l-22.94-13.9a.71.71 0 0 1-.14-1.09l13.44-14a.64.64 0 0 1 .82-.1l22.7 14.2c.17.1.29.29.31.5a.7.7 0 0 1-.19.58l-13.18 13.7c-.13.14-.3.21-.48.21Zm-21.86-14.75 21.75 13.18 12.22-12.7-21.52-13.45-12.45 12.97ZM246.74 158.14a.65.65 0 0 1-.5-.24l-14.61-17.82a.71.71 0 0 1-.08-.78l10.39-19.47c.11-.2.32-.34.55-.36.27-.02.45.1.58.3l13.57 19.76c.15.22.16.5.04.74l-9.35 17.51c-.1.2-.3.34-.52.36h-.07Zm-13.8-18.6 13.69 16.69 8.67-16.25-12.7-18.5-9.65 18.07ZM49.9 209.7h-.06a.67.67 0 0 1-.5-.32l-14.7-23.49a.72.72 0 0 1 .08-.87L45.9 173.4c.13-.15.33-.25.52-.2.2.01.38.11.5.27l15.95 22.2c.2.28.17.66-.06.9L50.39 209.5c-.13.13-.3.2-.48.2Zm-13.85-24.1 13.97 22.3L61.45 196 46.3 174.94 36.05 185.6Z"/><path fill="#ED8936" fill-opacity=".37" d="M89.1 248.6a.66.66 0 0 1-.43-.17L67.68 230.6a.7.7 0 0 1-.05-1.03l13.2-13.72a.65.65 0 0 1 .89-.05l21.23 17.56c.15.13.24.3.25.5.01.2-.06.4-.2.53l-13.43 14c-.13.13-.3.2-.48.2Zm-20-18.6 19.95 16.96 12.48-13-20.18-16.69-12.24 12.74Z"/><path fill="#ED8936" fill-opacity=".37" d="M68.1 230.75a.7.7 0 0 1-.49-.23l-18.2-21.06a.72.72 0 0 1 .02-.95l12.43-12.92a.66.66 0 0 1 .96 0l18.96 20.27c.26.27.26.7 0 .97l-13.2 13.72c-.12.13-.3.2-.47.2Zm-17.27-21.72 17.3 20.02 12.23-12.71-18.03-19.27-11.5 11.96ZM44.55 139.04h-.06a.68.68 0 0 1-.53-.37l-10.5-20.82a.72.72 0 0 1 .07-.76l8.77-11.15c.13-.17.26-.28.54-.26.2 0 .4.1.52.28l12.9 17.77c.19.25.18.6-.01.85l-11.17 14.2a.67.67 0 0 1-.53.26Zm-9.7-21.42 9.83 19.47 10.2-12.97L42.8 107.5l-7.95 10.11ZM225.03 102.09a.66.66 0 0 1-.41-.15l-20.73-17.06a.71.71 0 0 1-.18-.85l8.77-18.7c.1-.18.26-.32.46-.37.2-.04.4.01.57.14l20.58 17.42c.24.2.31.55.18.84l-8.63 18.34a.69.69 0 0 1-.6.39Zm-19.88-17.95 19.65 16.17 8.03-17.06-19.51-16.51-8.17 17.4ZM156.34 58.58a.64.64 0 0 1-.2-.03l-25.35-8.37a.68.68 0 0 1-.42-.39.73.73 0 0 1 .02-.58l7.3-15.54c.14-.3.47-.44.76-.37l26.18 6.65c.2.05.36.18.45.38.08.19.08.4 0 .6l-8.13 17.26a.67.67 0 0 1-.6.4Zm-24.4-9.48L156 57.04l7.5-15.95-24.84-6.3-6.73 14.31ZM88.65 76.44a.68.68 0 0 1-.22-.04L68.46 69a.69.69 0 0 1-.4-.41.71.71 0 0 1 .05-.6l7.37-12.57a.65.65 0 0 1 .69-.32l21.98 3.96c.22.04.4.2.5.4.09.21.08.45-.04.65l-9.38 16a.66.66 0 0 1-.58.33ZM69.7 67.98l18.68 6.92 8.58-14.64-20.56-3.71-6.7 11.43Z"/><path fill="#ED8936" fill-opacity=".37" d="M204.3 85.03a.67.67 0 0 1-.34-.1l-23.2-14.69a.71.71 0 0 1-.26-.9L189.12 51c.08-.17.23-.3.4-.36a.63.63 0 0 1 .54.07l23.37 14.34c.3.18.41.57.26.9l-8.78 18.7a.69.69 0 0 1-.41.35.64.64 0 0 1-.2.03Zm-22.33-15.65 22.06 13.97 8.18-17.43-22.2-13.63-8.04 17.1Z"/><path fill="#ED8936" fill-opacity=".37" d="M181.1 70.34a.65.65 0 0 1-.28-.06l-24.75-11.76a.69.69 0 0 1-.35-.4.72.72 0 0 1 .03-.54l8.12-17.26a.66.66 0 0 1 .85-.34l25.26 10.69c.17.07.3.2.37.39.07.18.06.38-.02.55l-8.62 18.34a.68.68 0 0 1-.61.4Zm-23.85-12.79 23.54 11.18 8.02-17.06-24.01-10.16-7.55 16.04ZM183.86 250.56a.69.69 0 0 1-.21-.04l-21.59-7.55a.68.68 0 0 1-.43-.47.71.71 0 0 1 .13-.63l14.58-18.55c.19-.24.52-.32.8-.19l20.13 9.4a.72.72 0 0 1 .24 1.07l-13.13 16.7a.67.67 0 0 1-.52.26Zm-20.46-8.59 20.24 7.08 12.28-15.62-18.87-8.81-13.65 17.35ZM46.37 174.57h-.07a.68.68 0 0 1-.51-.35l-12.35-23.27a.71.71 0 0 1 .08-.8l10.53-12.27c.14-.16.4-.23.54-.23.21.01.4.12.52.3l14.2 21.1c.18.26.16.61-.05.85l-12.38 14.44a.66.66 0 0 1-.51.23Zm-11.53-23.86 11.67 21.97 11.4-13.3-13.42-19.92-9.65 11.25Z"/><path fill="#ED8936" fill-opacity=".37" d="M148.5 259.05a.7.7 0 0 1-.25-.06l-23.29-10.25a.71.71 0 0 1-.24-1.1l14.62-17.04c.2-.23.53-.3.8-.16l22.43 11.25c.19.1.32.28.36.49a.7.7 0 0 1-.16.6l-13.76 16.03a.66.66 0 0 1-.5.24Zm-22.15-11.22 21.98 9.69 12.85-14.98-21.17-10.63-13.66 15.92ZM55.73 124.84c-.22 0-.4-.1-.54-.28l-12.9-17.77a.72.72 0 0 1 0-.83l8.92-12.23a.67.67 0 0 1 .47-.27.6.6 0 0 1 .51.17l15.34 14.43c.25.24.3.65.08.94l-11.35 15.56a.67.67 0 0 1-.53.28Zm-12.06-18.46 12.06 16.6 10.44-14.32-14.34-13.49-8.16 11.2ZM78.2 92.93a.66.66 0 0 1-.34-.1L60.13 81.9a.71.71 0 0 1-.22-.98l8.21-12.95c.18-.27.5-.37.8-.27l19.96 7.4c.2.06.35.22.41.43.07.2.04.42-.07.6L78.76 92.62a.66.66 0 0 1-.56.31ZM61.42 81.08 77.99 91.3l9.64-15.2-18.67-6.91-7.54 11.89Z"/><path fill="#ED8936" fill-opacity=".37" d="M67.07 109.27a.66.66 0 0 1-.44-.18L51.29 94.66a.71.71 0 0 1-.1-.91l8.74-12.85c.2-.3.59-.37.89-.2l17.72 10.94c.17.1.28.26.32.45a.7.7 0 0 1-.11.55l-11.12 16.34a.66.66 0 0 1-.56.29ZM52.63 94.05l14.34 13.48 10.27-15.08-16.58-10.22-8.03 11.82ZM235.7 176.96a.65.65 0 0 1-.45-.2l-15.84-15.73a.71.71 0 0 1-.1-.86l12.25-20.9c.12-.19.31-.31.53-.33.2-.04.42.07.56.25l14.6 17.81a.7.7 0 0 1 .06.8l-11.03 18.82a.67.67 0 0 1-.58.34Zm-14.97-16.55 14.84 14.75 10.35-17.64-13.7-16.7-11.49 19.6ZM121.63 67.73a.63.63 0 0 1-.2-.03L97.85 60.4a.67.67 0 0 1-.42-.4.7.7 0 0 1 .03-.6l7.95-14.9c.14-.25.43-.4.7-.34l25 4.66c.22.04.4.19.5.4.09.2.08.43-.03.63l-9.35 17.51a.66.66 0 0 1-.6.36Zm-22.6-8.4 22.28 6.88 8.64-16.18-23.61-4.4-7.32 13.7Z"/><path fill="#ED8936" fill-opacity=".37" d="M232.13 140.33a.65.65 0 0 1-.45-.19l-18.12-17.58a.71.71 0 0 1-.13-.84l11.02-20.66c.1-.2.29-.32.5-.36.22-.01.42.05.57.21l17.49 18.77c.2.23.25.56.1.82l-10.38 19.47a.68.68 0 0 1-.6.36Zm-17.28-18.42 17.12 16.6 9.73-18.23-16.51-17.72-10.34 19.36ZM196.99 233.86a.62.62 0 0 1-.28-.06l-20.13-9.4a.69.69 0 0 1-.38-.46c-.05-.21 0-.43.12-.6L191.17 203c.2-.28.58-.36.87-.18l18.65 11.44c.17.1.28.27.32.46.03.2-.01.4-.13.56l-13.35 18.3a.66.66 0 0 1-.54.28Zm-19.1-10.37 18.89 8.81 12.58-17.24-17.49-10.73-13.97 19.16ZM223.41 196.34a.64.64 0 0 1-.4-.14l-17.19-13.57a.7.7 0 0 1-.15-.94l13.65-21.54a.66.66 0 0 1 .48-.31c.2-.02.4.04.54.19l15.83 15.73c.24.23.28.6.1.88l-12.3 19.4a.68.68 0 0 1-.44.3h-.12Zm-16.28-14.43 16.12 12.74 11.6-18.29-14.86-14.75-12.86 20.3Z"/><path fill="#ED8936" fill-opacity=".37" d="M210.34 215.55a.65.65 0 0 1-.33-.1l-18.65-11.44a.68.68 0 0 1-.31-.44.71.71 0 0 1 .1-.55l14.53-21.34c.1-.16.27-.26.45-.29.18-.03.36.02.5.13l17.2 13.58a.7.7 0 0 1 .13.95l-13.06 19.2c-.13.2-.34.3-.56.3Zm-17.67-12.35 17.49 10.73 12.34-18.13-16.13-12.73-13.7 20.13ZM62.33 196.77h-.02a.67.67 0 0 1-.51-.28l-15.96-22.2a.71.71 0 0 1 .03-.87l12.4-14.44a.66.66 0 0 1 1 0l17.34 20.6c.22.26.22.65 0 .91l-13.77 16.05a.66.66 0 0 1-.51.23Zm-15.09-22.85 15.14 21.06 12.83-14.96-16.45-19.53-11.52 13.43ZM125.22 248.8a.65.65 0 0 1-.34-.11l-22.7-14.2a.7.7 0 0 1-.31-.48.7.7 0 0 1 .16-.57l14.91-17.36c.22-.25.58-.3.86-.13l22.4 14.52a.71.71 0 0 1 .14 1.05l-14.61 17.04a.66.66 0 0 1-.5.23Zm-21.65-15.06 21.53 13.46 13.71-15.98-21.24-13.78-14 16.3Z"/><path fill="#ED8936" fill-opacity=".37" d="M58.76 160.14h-.02a.66.66 0 0 1-.53-.3l-14.2-21.1a.71.71 0 0 1 .03-.84l11.17-14.2c.12-.15.3-.25.5-.25.25-.02.38.08.52.23l16.16 18.6c.22.26.23.64.02.9l-13.13 16.7a.66.66 0 0 1-.52.26ZM45.4 138.37l13.4 19.92L71 142.77l-15.25-17.56-10.35 13.16ZM102.53 234.6a.63.63 0 0 1-.42-.15l-21.23-17.57a.7.7 0 0 1-.25-.48.72.72 0 0 1 .17-.52l14.62-17.03a.66.66 0 0 1 .92-.09L117.85 216a.7.7 0 0 1 .1 1.01l-14.92 17.37a.66.66 0 0 1-.5.23Zm-20.26-18.34 20.18 16.7 14.01-16.32-20.45-16.38-13.74 16Z"/><path fill="#ED8936" fill-opacity=".37" d="M81.3 217.04a.66.66 0 0 1-.48-.21l-18.97-20.27a.71.71 0 0 1-.02-.94l13.77-16.05a.66.66 0 0 1 .48-.24c.17 0 .35.06.49.2l19.81 19.27c.27.26.29.7.04.97L81.8 216.8a.67.67 0 0 1-.48.24h-.02Zm-18.05-20.98 18.03 19.26 13.71-15.97-18.84-18.32-12.9 15.03ZM145.96 78.04a.63.63 0 0 1-.25-.05l-24.33-10.31a.68.68 0 0 1-.38-.42.7.7 0 0 1 .05-.56l9.36-17.52a.64.64 0 0 1 .78-.32l25.36 8.37c.2.06.35.2.42.4a.7.7 0 0 1-.04.6l-10.38 19.45a.67.67 0 0 1-.6.36ZM122.58 66.7l23.09 9.78 9.7-18.18-24.06-7.94-8.73 16.34ZM214.01 122.75a.65.65 0 0 1-.4-.14l-20.97-16.66a.7.7 0 0 1-.17-.89L203.72 84a.66.66 0 0 1 1-.2l20.74 17.05c.25.21.32.58.17.88L214.6 122.4a.69.69 0 0 1-.59.36Zm-20.1-17.54 19.9 15.8 10.37-19.44L204.5 85.4l-10.6 19.82Z"/><path fill="#ED8936" fill-opacity=".37" d="M110.6 86.53a.66.66 0 0 1-.26-.06L88.38 76.38a.69.69 0 0 1-.37-.43.71.71 0 0 1 .07-.56l9.38-16c.16-.27.47-.4.77-.3l23.6 7.28c.2.06.35.21.43.41.07.2.05.43-.06.61l-11.02 18.8a.66.66 0 0 1-.58.34Zm-20.98-11.1 20.72 9.53 10.27-17.52-22.27-6.87-8.72 14.86ZM162.27 243c-.1 0-.2-.02-.29-.06l-22.43-11.25a.69.69 0 0 1-.36-.48.7.7 0 0 1 .13-.59l15.48-19.7c.21-.26.57-.32.85-.16l21.53 12.4c.18.1.3.27.33.47.04.2-.01.41-.13.57l-14.59 18.55a.67.67 0 0 1-.52.26Zm-21.37-12.18 21.19 10.63 13.74-17.48-20.34-11.71-14.6 18.56ZM193.05 106.1a.64.64 0 0 1-.36-.11l-22.97-15.1c-.3-.2-.4-.6-.23-.92l11.02-20.66a.67.67 0 0 1 .94-.26l23.21 14.7c.3.19.41.6.24.92l-11.26 21.06a.67.67 0 0 1-.6.36Zm-22.08-16.03 21.84 14.35 10.6-19.84-22.06-13.96-10.38 19.45Z"/><path fill="#ED8936" fill-opacity=".37" d="M170.08 91c-.1 0-.21-.03-.3-.08l-24.13-12.96a.68.68 0 0 1-.33-.41.7.7 0 0 1 .06-.54l10.38-19.46a.66.66 0 0 1 .87-.3l24.75 11.76a.7.7 0 0 1 .31.97l-11.02 20.66a.67.67 0 0 1-.6.36Zm-23.2-13.94 22.93 12.32 10.36-19.41-23.53-11.18-9.76 18.27ZM219.87 161.22a.65.65 0 0 1-.42-.16l-18.88-16.28a.72.72 0 0 1-.15-.9l13.02-22.19c.1-.18.28-.3.48-.33.22-.02.4.04.55.19l18.13 17.58c.23.22.28.58.11.87l-12.26 20.9a.67.67 0 0 1-.58.32Zm-18-17.13 17.84 15.4 11.57-19.73-17.12-16.61-12.3 20.94ZM71.89 143.44a.66.66 0 0 1-.5-.23l-16.16-18.6a.72.72 0 0 1-.04-.89l11.35-15.56a.67.67 0 0 1 .46-.27c.2-.02.37.03.51.15l18.17 15.87c.27.24.32.66.1.95l-13.35 18.3a.67.67 0 0 1-.51.28h-.03Zm-15.3-19.34 15.25 17.56 12.49-17.1-17.14-14.98-10.6 14.52ZM98.3 105.93a.66.66 0 0 1-.34-.1l-20.12-13a.7.7 0 0 1-.2-.97l10.45-16.5a.67.67 0 0 1 .84-.25l21.95 10.1a.7.7 0 0 1 .29 1.01l-12.3 19.4a.66.66 0 0 1-.56.3Zm-19.16-13.9 18.97 12.25 11.5-18.14-20.7-9.52-9.77 15.4Z"/><path fill="#ED8936" fill-opacity=".37" d="M85.24 125.14a.67.67 0 0 1-.43-.16L66.64 109.1a.72.72 0 0 1-.11-.94l11.12-16.33c.2-.3.6-.4.9-.2l20.12 13c.15.1.26.27.3.46a.7.7 0 0 1-.11.53l-13.07 19.22a.67.67 0 0 1-.46.28l-.09.01Zm-17.26-16.68 17.14 14.97 12.24-18-18.98-12.26-10.4 15.29ZM176.85 224.46a.64.64 0 0 1-.32-.09L155 211.97a.7.7 0 0 1-.33-.46c-.04-.2 0-.4.12-.56l15.75-21.6c.22-.29.6-.35.9-.16l20.62 13.64c.16.1.27.27.3.46.03.2-.01.4-.12.55l-14.85 20.34a.67.67 0 0 1-.54.28Zm-20.53-13.31 20.35 11.71 14.06-19.26-19.49-12.9-14.92 20.45ZM76.1 180.72a.68.68 0 0 1-.5-.23l-17.34-20.6a.72.72 0 0 1-.02-.89l13.13-16.7c.12-.14.3-.23.48-.25.13-.05.37.06.5.2l18.8 18.73c.24.25.27.66.05.94l-14.57 18.55a.67.67 0 0 1-.51.25h-.02Zm-16.46-21.3 16.45 19.53 13.68-17.4-17.82-17.78-12.3 15.65ZM206.22 182.77a.65.65 0 0 1-.39-.13l-19.72-14.97a.71.71 0 0 1-.17-.95l14.5-22.86a.66.66 0 0 1 .99-.15l18.88 16.28c.26.23.31.62.13.92l-13.65 21.55a.67.67 0 0 1-.56.31Zm-18.8-15.84 18.64 14.15 12.93-20.41-17.85-15.4-13.72 21.66Z"/><path fill="#ED8936" fill-opacity=".37" d="M191.7 204.11a.66.66 0 0 1-.36-.1l-20.62-13.65a.71.71 0 0 1-.19-.99l15.43-22.66c.1-.16.26-.26.44-.29.17-.03.36.02.5.13l19.73 14.96c.3.23.36.66.15.97l-14.53 21.34c-.13.19-.34.3-.55.3Zm-19.67-14.53 19.5 12.9 13.77-20.25-18.64-14.15-14.63 21.5ZM139.84 231.76a.67.67 0 0 1-.35-.1l-22.4-14.53a.7.7 0 0 1-.17-1.03l15.78-20.08c.21-.27.6-.34.89-.14l22.1 14.9a.7.7 0 0 1 .3.48.7.7 0 0 1-.15.55l-15.48 19.69a.66.66 0 0 1-.52.26Zm-21.4-15.4 21.26 13.79 14.63-18.62-20.97-14.14-14.92 18.98ZM133.7 98.94c-.1 0-.2-.02-.3-.08l-23.1-12.4a.7.7 0 0 1-.26-.98l11.02-18.8c.17-.3.53-.42.83-.29l24.33 10.31c.18.08.32.24.38.43.06.2.04.4-.06.58l-12.26 20.9a.67.67 0 0 1-.58.33Zm-22.15-13.38 21.9 11.77 11.53-19.65-23.07-9.78-10.36 17.66Z"/><path fill="#ED8936" fill-opacity=".37" d="M117.44 217.24a.66.66 0 0 1-.4-.15L95.5 199.86a.7.7 0 0 1-.1-.99l15.47-19.7c.23-.28.63-.33.93-.11l21.81 16.84a.7.7 0 0 1 .26.48.7.7 0 0 1-.14.52l-15.78 20.08a.67.67 0 0 1-.52.26ZM96.88 199.2l20.45 16.38 14.93-19-20.74-16-14.64 18.62Z"/><path fill="#ED8936" fill-opacity=".37" d="M95.92 200a.67.67 0 0 1-.46-.18l-19.81-19.28a.72.72 0 0 1-.06-.95l14.57-18.55a.67.67 0 0 1 .46-.25c.17-.04.36.04.5.16l20.71 18.13c.28.25.32.68.1.97l-15.49 19.7a.66.66 0 0 1-.52.25Zm-18.9-20.03 18.84 18.32 14.6-18.58-19.7-17.24-13.74 17.5ZM201 144.94a.65.65 0 0 1-.4-.14l-21.22-16.22a.7.7 0 0 1-.17-.92l13.27-22.62c.1-.17.26-.29.45-.33.18-.03.38.01.53.14l20.96 16.65c.27.22.34.61.17.92l-13.02 22.18a.68.68 0 0 1-.58.34Zm-20.32-17.1 20.13 15.4 12.32-21.02-19.9-15.8-12.55 21.42Z"/><path fill="#ED8936" fill-opacity=".37" d="M179.78 128.72a.65.65 0 0 1-.36-.12l-22.72-15.53a.7.7 0 0 1-.2-.94l13-22.19c.1-.16.25-.27.43-.31a.66.66 0 0 1 .5.09l22.98 15.1c.3.2.4.62.22.94l-13.27 22.62a.66.66 0 0 1-.58.34Zm-21.8-16.44 21.6 14.76 12.56-21.42-21.84-14.35-12.33 21Z"/><path fill="#ED8936" fill-opacity=".37" d="M157.06 113.19a.65.65 0 0 1-.34-.1l-23.36-14.24a.71.71 0 0 1-.23-.96l12.26-20.9c.18-.31.56-.43.88-.26L170.4 89.7a.7.7 0 0 1 .34.43c.05.18.02.38-.08.54l-13.01 22.2a.67.67 0 0 1-.58.33ZM134.63 98l22.2 13.53 12.3-20.96-22.92-12.32-11.58 19.75ZM90.67 162.18a.66.66 0 0 1-.46-.2l-18.79-18.73a.71.71 0 0 1-.07-.92l13.36-18.3c.11-.15.27-.25.45-.27.18-.03.36.02.5.14l20.28 16.7c.3.23.34.66.12.96L91.21 161.9a.67.67 0 0 1-.48.28h-.06Zm-17.89-19.5 17.82 17.76 14-19.18-19.23-15.83-12.59 17.24Z"/><path fill="#ED8936" fill-opacity=".37" d="M120.05 120.48a.66.66 0 0 1-.36-.1l-21.74-14.56a.7.7 0 0 1-.3-.44.73.73 0 0 1 .1-.53l12.3-19.4c.19-.29.56-.4.87-.23l23.1 12.41a.7.7 0 0 1 .24 1l-13.64 21.54a.66.66 0 0 1-.57.31Zm-20.8-15.45 20.6 13.8 12.88-20.32-21.9-11.77-11.59 18.29Z"/><path fill="#ED8936" fill-opacity=".37" d="M105.52 141.83a.66.66 0 0 1-.41-.15L84.83 125a.71.71 0 0 1-.13-.94l13.07-19.22c.2-.3.61-.38.9-.18l21.75 14.55a.71.71 0 0 1 .18.99l-14.52 21.35a.67.67 0 0 1-.46.29h-.1Zm-19.36-17.52 19.23 15.82 13.72-20.15-20.62-13.8-12.33 18.13ZM155.32 212.06a.66.66 0 0 1-.36-.1l-22.1-14.91a.71.71 0 0 1-.17-1l16.06-22.03c.22-.3.61-.36.9-.15l21.8 15.33c.16.1.26.28.3.46a.73.73 0 0 1-.13.53l-15.76 21.6a.67.67 0 0 1-.54.27Zm-21.13-15.77 20.98 14.14 14.95-20.5-20.69-14.54-15.24 20.9ZM186.5 167.8a.67.67 0 0 1-.38-.13l-21.5-15.76a.71.71 0 0 1-.16-.95l14.76-23.32c.1-.16.27-.27.44-.3a.6.6 0 0 1 .52.12l21.22 16.22a.7.7 0 0 1 .16.94l-14.5 22.87a.67.67 0 0 1-.56.31Zm-20.57-16.64 20.4 14.96 13.76-21.71-20.13-15.4-14.03 22.15Z"/><path fill="#ED8936" fill-opacity=".37" d="M171.08 190.47a.65.65 0 0 1-.38-.12l-21.8-15.33a.72.72 0 0 1-.17-.97l15.74-23.11c.1-.15.26-.25.43-.28.18-.03.36.01.5.11l21.5 15.77c.3.22.37.65.15.97l-15.42 22.67c-.13.19-.34.3-.55.29Zm-20.86-16.2 20.7 14.55 14.65-21.55-20.4-14.96-14.95 21.96Z"/><path fill="#ED8936" fill-opacity=".37" d="M133.22 197.16a.67.67 0 0 1-.4-.14L111 180.17a.73.73 0 0 1-.26-.45.74.74 0 0 1 .13-.52l15.74-21.6c.23-.3.63-.36.93-.14l22.13 16.42a.71.71 0 0 1 .15.98l-16.06 22.02a.66.66 0 0 1-.54.28Zm-20.88-17.68 20.75 16.02 15.24-20.9-21.04-15.62-14.95 20.5Z"/><path fill="#ED8936" fill-opacity=".37" d="M111.4 180.31a.66.66 0 0 1-.43-.16L90.25 162a.72.72 0 0 1-.1-.95l14.84-20.34c.23-.3.65-.37.94-.14l21.62 16.89a.71.71 0 0 1 .13.97l-15.74 21.6a.67.67 0 0 1-.54.27Zm-19.8-18.93 19.7 17.23 14.9-20.45-20.54-16.05-14.06 19.27ZM165.01 152.04a.66.66 0 0 1-.38-.13l-22.44-15.98a.71.71 0 0 1-.18-.96l14.5-22.86c.1-.15.25-.26.42-.3.18-.04.36 0 .5.1l22.72 15.53c.31.21.4.64.2.96l-14.77 23.32a.68.68 0 0 1-.44.3.67.67 0 0 1-.13.02Zm-21.52-16.87 21.34 15.2 14.02-22.15-21.6-14.77-13.76 21.72Z"/><path fill="#ED8936" fill-opacity=".37" d="M149.28 175.14a.66.66 0 0 1-.39-.13l-22.13-16.42a.7.7 0 0 1-.16-.97l15.43-22.66a.65.65 0 0 1 .92-.18l22.45 15.99a.7.7 0 0 1 .17.97l-15.74 23.1a.68.68 0 0 1-.55.3Zm-21.2-17.28 21.04 15.61 14.96-21.96-21.34-15.2-14.66 21.55Z"/><path fill="#ED8936" fill-opacity=".37" d="M142.57 136.05a.64.64 0 0 1-.37-.12l-22.52-15.56a.7.7 0 0 1-.19-.96l13.65-21.54c.2-.31.6-.4.9-.22l23.37 14.24a.7.7 0 0 1 .22.98l-14.5 22.87a.67.67 0 0 1-.56.31Zm-21.59-16.46 21.4 14.8 13.74-21.67-22.2-13.54-12.94 20.41Z"/><path fill="#ED8936" fill-opacity=".37" d="M127.14 158.72a.67.67 0 0 1-.4-.14l-21.62-16.89a.71.71 0 0 1-.14-.95l14.53-21.35c.2-.3.62-.39.92-.18l22.51 15.57c.15.1.26.26.3.45.02.18-.02.37-.12.53l-15.43 22.67a.66.66 0 0 1-.55.29Zm-20.7-17.73L127 157.04l14.63-21.5-21.4-14.8L106.44 141Z"/></svg>